<svg xmlns="http://www.w3.org/2000/svg" version="1.1" xmlns:xlink="http://www.w3.org/1999/xlink" xmlns:svgjs="http://svgjs.com/svgjs" width="512" height="512" x="0" y="0" viewBox="0 0 463.838 463.838" style="enable-background:new 0 0 512 512" xml:space="preserve" class=""><g><path fill="#ffdfba" d="M232.001 37.419c114.32 0 207 92.68 207 207s-92.68 207-207 207-207-92.68-207-207 92.68-207 207-207zm78.24 218c6.643-47.698-30.359-90-78.24-90-46.363 0-83.257 39.889-78.6 87 4.01 39.87 37.67 71 78.6 71 39.9 0 72.89-29.58 78.24-68z" data-original="#ffdfba" class=""></path><path fill="#ff6d7a" d="M463.581 210.829c2.11 14.53-9.05 27.59-23.74 27.59h-39.83c-10.5 0-19.01 8.51-19.01 19.01v53.99c0 11.29-9.87 20.29-21.43 18.85-9.57-1.2-16.57-9.65-16.57-19.29v-36.55c0-10.5-8.51-19.01-19.01-19.01h-13.75c6.643-47.698-30.359-90-78.24-90-46.363 0-83.257 39.889-78.6 87h-14.8c-10.83 0-19.6 8.73-19.6 19.5v36c0 11.23-9.49 20.23-20.87 19.45-10.3-.7-18.13-9.6-18.13-19.93v-13.51c0-10.78-8.73-19.51-19.51-19.51h-36.39c-13.04 0-23.65-10.4-24.01-23.43-3.63-131.21 101.68-238.57 231.91-238.57 116.72 0 215.31 86.19 231.58 198.41z" data-original="#ff6d7a" class=""></path><g fill="#fff"><path d="M74.997 226.419c-6.62 0-10.459-7.726-6.242-12.998l4-5A8.003 8.003 0 0 1 84 207.172a8.002 8.002 0 0 1 1.249 11.245l-4 5a7.987 7.987 0 0 1-6.252 3.002zM103.005 163.421c-1.587 0-2.179-.303-9.202-2.31a8 8 0 0 1 4.397-15.385l7 2a8 8 0 0 1-2.195 15.695zM187.001 132.419a8 8 0 0 1-8-8v-9a8 8 0 0 1 16 0v9a8 8 0 0 1-8 8zM231.383 85.235a7.966 7.966 0 0 1-4.838-1.633l-4.775-3.633a8 8 0 0 1-1.523-11.211 8 8 0 0 1 11.211-1.523l4.775 3.633c6.098 4.639 2.777 14.367-4.85 14.367zM313 148.421a8.001 8.001 0 0 1-2.529-15.592l9-3a8 8 0 1 1 5.06 15.18c-9.768 3.257-9.823 3.412-11.531 3.412zM388 183.421a8.004 8.004 0 0 1-7.589-5.472l-2-6a8.001 8.001 0 0 1 15.18-5.06l2 6c1.728 5.187-2.146 10.532-7.591 10.532zM317.001 90.419h-6a8 8 0 0 1 0-16h6a8 8 0 0 1 0 16zM129.684 96.643c-7.878 0-11.024-10.259-4.453-14.652l6.65-4.445a8.001 8.001 0 0 1 8.891 13.303l-6.65 4.445a7.979 7.979 0 0 1-4.438 1.349z" fill="#ffffff" data-original="#ffffff" class=""></path></g><path fill="#ff8c95" d="M369.001 296.429v14.62c0 16.643-25.057 17.686-25.969 1.068-.049-.887-.031-27.808-.031-27.708a6.99 6.99 0 0 1 6.99-6.99c10.469 0 19.01 8.482 19.01 19.01zM233.982 12.427c14.74.123 15.724 21.731 1.066 23.288C115.951 48.362 29.532 148.042 25.632 251.151c-.618 16.324-25.076 16.656-25.54-.162C-3.577 118.4 103.559 11.337 233.982 12.427z" data-original="#ff8c95" class=""></path><path fill="#fff3e4" d="M63.191 364.244c-18.525-26.042-31.201-56.603-36.02-89.825 35.783 0 33.659-.011 34 .02a205.641 205.641 0 0 0 25.927 74.162c9.162 15.7-13.37 30.456-23.907 15.643z" data-original="#fff3e4"></path></g></svg>