<svg version="1.2" xmlns="http://www.w3.org/2000/svg" viewBox="0 0 1000 1000" width="1000" height="1000"><style>.a{fill:#e77243}.b{fill:#bc6348}.c{fill:#f28a55}.d{fill:#92f4ea}.e{fill:#82d8ce}.f{fill:#fff}.g{fill:#ef7bbd}.h{fill:#723027}</style><path fill-rule="evenodd" class="a" d="m778.8 501.3c0 152-123.3 275.3-275.3 275.3-152.1 0-275.3-123.3-275.3-275.3 0-152 123.2-275.3 275.3-275.3 152 0 275.3 123.3 275.3 275.3zm-173.5 0c0-56.2-45.6-101.8-101.8-101.8-56.2 0-101.8 45.6-101.8 101.8 0 56.2 45.6 101.8 101.8 101.8 56.2 0 101.8-45.6 101.8-101.8z"/><path class="b" d="m676.2 287c52.8 50.1 85.7 121 85.7 199.5 0 152.1-123.3 275.3-275.3 275.3-65.4 0-125.5-22.8-172.7-60.9 49.3 46.9 116.1 75.7 189.6 75.7 152 0 275.3-123.3 275.3-275.3 0-86.6-40.1-163.9-102.6-214.3z"/><path class="c" d="m262.2 538.1c-0.8-166.9 91.4-280 285.5-276.9 66.2 1.1 103.9 18.5 146.5 45.4-50.1-51.6-120.1-83.6-197.6-83.6-152 0-275.3 123.2-275.3 275.3 0 98 51.2 184 128.4 232.8-48.1-49.6-87.2-118.5-87.5-193z"/><path class="b" d="m419.7 559.2c-10.4-16-17.6-37.7-17.6-58.2 0-56.2 44.6-101.2 100.8-101.2 34.7 0 67.7 19.7 86.1 46.2-1.4-19.8-16.3-35.5-32.5-46.7-24.2-16.8-48.3-20.2-76.3-15.3-43.1 7.5-99.9 55.2-92.1 119.8 2.8 23.6 12.7 42.3 31.6 55.4z"/><path fill-rule="evenodd" class="d" d="m758.5 565.8c-1.7 19.2-10.4 44.3-19.8 61.4-14.5 26.5-42.7 40.4-67 56.9-21.9 15-32.4 39.4-53.2 54.8-43.1 31.9-94.6 18.1-139.6-2.3-23.5-10.6-47.2-21.6-72.9-25.9-24.2-3.9-48-5.2-70.5-15.8-45.3-21.2-70.1-54.6-65.3-104.6 1.8-19.3 6.9-36.3 3.1-55.9-5.1-25.5-20.4-45.8-24-71.5-10-73 23.2-123.7 59.9-150.9 29.1-21.6 68.9-26.7 103.3-35 22.7-5.5 46-10.5 67.6-19.8 21.5-9.3 42.3-18.5 66.3-17.1 19.2 1.1 39.8 3.4 56 14.8 17.8 12.4 29 30.9 44.3 45.3 34.3 32.5 79.3 55.8 94.9 103.3 11.3 34.6-8.3 69.5 2.9 105.6 5.9 19 15.7 36.2 14 56.7zm-155.3-153c-25.9-23.4-27.9-55.2-62.5-61.7-38.4-7.2-113.9-11.1-163 64.1-19.3 29.6-3.9 54.6-18 106.5-5.1 19-3 53.4 17.2 58 17.4 4 36.9 15.1 45.1 30.1 16.9 30.6 40 58.9 79.1 44.8 17.4-6.3 32.1-18 48.5-25.6 16-7.3 32-12.9 46.4-24.8 61.7-50.6 72.8-132.1 7.2-191.4z"/><path class="e" d="m404.6 597.9c10.2 18.6 22.7 36.3 39.7 44.2-9-8.9-16.5-20.4-23.1-32.3-5-9.2-14.4-17-24.9-22.5 3.4 3.2 6.2 6.8 8.3 10.6z"/><path class="e" d="m359.5 567.9q1.5 0.3 2.9 0.7c-7.1-12.9-7-33.6-3.5-46.9 14.1-51.9-1.3-76.9 18-106.5 49.1-75.2 124.6-71.3 163-64.1 3.8 0.7 7.3 1.8 10.4 3.1-6.6-7.2-14.8-12.6-27-15-38.4-7.2-113.9-11-163 64.1-19.4 29.7-3.9 54.6-18 106.5-5.1 19.1-3 53.5 17.2 58.1z"/><path class="e" d="m744.5 509.1c-11.2-36.1 8.4-71-2.9-105.6-15.6-47.5-60.6-70.8-94.9-103.3-15.3-14.4-26.5-32.9-44.3-45.3-2.4-1.7-4.8-3.1-7.3-4.4 12.8 11.6 22.6 26.1 35 37.8 34.3 32.5 79.3 55.8 94.9 103.4 11.3 34.5-8.3 69.5 2.9 105.5 5.9 19.1 15.7 36.2 14 56.7-1.7 19.3-10.4 44.3-19.8 61.4-14.6 26.5-42.7 40.4-67 57-21.9 15-32.4 39.3-53.2 54.8-43.1 31.8-94.6 18-139.6-2.3-23.5-10.6-47.2-21.7-73-25.9-24.1-4-47.9-5.3-70.4-15.8q-8.4-3.9-15.9-8.4c9.2 7.7 20.1 14.4 32.5 20.2 22.5 10.6 46.3 11.9 70.5 15.8 25.7 4.3 49.4 15.3 72.9 25.9 45 20.4 96.5 34.2 139.6 2.3 20.8-15.4 31.3-39.8 53.2-54.8 24.3-16.5 52.5-30.4 67-56.9 9.4-17.1 18.1-42.2 19.8-61.4 1.7-20.5-8.1-37.7-14-56.7z"/><path fill-rule="evenodd" class="f" d="m337.6 325.2c-6.7 9.2-18.6 14.2-25.3 23.5-8.5 11.8-12.6 27.5-16.6 41.2-4.3 14.2-3.3 27.4-1.9 41.9 0.9 9.1 7.6 31.5-0.5 39-13.1 11.8-26.3-16.9-23.9-64.3 0.7-13.8 16.6-49.8 18.9-53 16.6-29.3 36.4-37.9 42.7-38.8 8.9-1.2 11.3 4 6.6 10.5zm-28.7 3.8l-2.6 4.7q1.4-2.4 2.6-4.7z"/><path fill-rule="evenodd" class="f" d="m420.6 297.1c-7.3 1-55.5 19.2-64.9 5.6-5.1-7.5 6.9-9.9 12.3-11.1 12.2-2.6 25.7-3.4 38.2-4.6 12.9-1.3 26.2-3.7 38.8-7.1 10.7-2.9 25.1-13.8 36.2-9.4 4.2 19.2-49.9 25.2-60.6 26.6zm-50.7 8.1q-0.1 0-0.1 0 1 0 0.1 0z"/><path class="f" d="m628.3 585c-4.9 1.6-8.2 10.9-10.9 14.5-4.4 5.9-9.6 11.3-15 16-18.3 15.6-44 17.4-64 28.5-4 1-8 2.5-11.2 4.5-9.1 5.8-20 24-0.8 21.4 10.5-1.5 21.5-11.7 30.9-16.4 22.8-11.3 54.7-21.9 71.4-41.9 4.3-5.2 14.7-31.3-0.4-26.6z"/><path fill-rule="evenodd" class="f" d="m676.7 511.7c-0.6 12.7-3.6 25.9-7.1 38-1.8 6.4-16.7 39.5-26.7 29.1-6.2-6.5 6.5-23.4 15.3-36.2 1.4-4.7 2.3-9.4 2.9-13.5 0.9-6.4 0.6-13.2 0.6-19.8 0-5.1-2.9-15.6-0.1-19.8 11-15.8 15.4 16.6 15.1 22.2zm-11 18.2l-4.4 8.1c2.2-3.3 3.8-6.1 4.4-8.1z"/><path class="f" d="m300.8 570.8c1.6-4.5 5.5-14 0.2-17-4.2-2.5-10.8 2.7-12.9 6.1-2.8 4.5-7.7 17.4-6.1 42 0.6 9.1 1.3 33.7 12.6 37.4 15 4.8 4.5-25.1 3.4-30.3-2.8-13.4-1.7-25.7 2.8-38.2z"/><path class="g" d="m323.9 635.1c0 0-16.2-8.5-21.9-0.5-12.4 17.8 26.4 33.2 26.4 33.2 0 0 29.4-22.6 17.4-35.6-8.2-8.9-21.9 2.9-21.9 2.9z"/><path class="g" d="m373.4 340.6c0 0-17.7 5-16.2 14.7 3.1 21.5 41.9 6 41.9 6 0 0 5.9-36.5-11.7-37.8-12.1-0.9-14 17.1-14 17.1z"/><path class="g" d="m720.4 451.2c0 0-13.5-12.4-21-6.1-16.6 14.1 17.1 38.9 17.1 38.9 0 0 34.1-14.4 25.9-30-5.7-10.7-22-2.8-22-2.8z"/><path class="g" d="m602 652c0 0-8.2 16.4 0 21.9 18 12.1 32.6-27.1 32.6-27.1 0 0-23.2-28.8-36-16.6-8.7 8.3 3.4 21.8 3.4 21.8z"/><path class="g" d="m330.9 531.6c0 0-14.5-11.2-21.5-4.2-15.3 15.4 20.3 37.2 20.3 37.2 0 0 32.8-17.2 23.3-32.1-6.5-10.1-22.1-0.9-22.1-0.9z"/><path class="g" d="m584.5 281.7c0 0 4.1-17.9-5.2-21.3-20.4-7.5-25.3 34-25.3 34 0 0 29.4 22.6 38.9 7.7 6.5-10.2-8.4-20.4-8.4-20.4z"/><path class="g" d="m530.1 715.3c0 0-17.6-5.1-21.5 3.9-8.7 19.9 32.4 27.3 32.4 27.3 0 0 24.3-28 10-38.4-9.8-7-20.9 7.2-20.9 7.2z"/><path class="h" d="m281.1 455.8c0 0-18.3 1.3-18.9 11.1-1.1 21.7 40 14.3 40 14.3 0 0 13-34.7-4-39.4-11.7-3.2-17.1 14-17.1 14z"/><path class="h" d="m640.6 398.9c0 0-2.7-18.2-12.5-18-21.7 0.4-11.3 40.8-11.3 40.8 0 0 35.6 10.5 39-6.8 2.4-11.9-15.2-16-15.2-16z"/><path class="h" d="m699.8 626.1c0 0-13.3-12.7-20.9-6.4-16.8 13.8 16.4 39.1 16.4 39.1 0 0 34.4-13.9 26.4-29.6-5.5-10.8-21.9-3.1-21.9-3.1z"/><path class="h" d="m436.9 654.6c0 0-18.3 1.4-18.8 11.2-1.2 21.7 39.9 14.2 39.9 14.2 0 0 13-34.7-4-39.4-11.7-3.2-17.1 14-17.1 14z"/><path class="h" d="m329.1 382.6c0 0-7-17-16.5-14.5-20.9 5.6-1.2 42.4-1.2 42.4 0 0 37 1.6 36.3-16-0.5-12.1-18.6-11.9-18.6-11.9z"/><path class="h" d="m700 539.9c0 0-17.8 4.7-16.5 14.5 3 21.5 41.9 6.5 41.9 6.5 0 0 6.3-36.5-11.3-38-12-1-14.1 17-14.1 17z"/><path class="h" d="m647.3 316.3c0 0-15.6-9.6-21.8-2-13.6 16.9 24 35 24 35 0 0 30.9-20.6 19.9-34.3-7.6-9.5-22.1 1.3-22.1 1.3z"/><path class="h" d="m470.1 281.8c0 0-12.8 13.2-6.6 20.9 13.7 16.9 39.2-16.2 39.2-16.2 0 0-13.6-34.4-29.3-26.6-10.8 5.4-3.3 21.9-3.3 21.9z"/><path class="f" d="m352.2 603.5c0 5.2-4.2 9.5-9.5 9.5-5.2 0-9.5-4.3-9.5-9.5 0-5.3 4.3-9.5 9.5-9.5 5.3 0 9.5 4.2 9.5 9.5z"/><path class="f" d="m397.6 618.3c0 5.2-4.3 9.4-9.5 9.4-5.3 0-9.5-4.2-9.5-9.4 0-5.3 4.2-9.5 9.5-9.5 5.2 0 9.5 4.2 9.5 9.5z"/><path class="f" d="m391.3 659.4c0 5.2-4.3 9.5-9.5 9.5-5.3 0-9.5-4.3-9.5-9.5 0-5.3 4.2-9.5 9.5-9.5 5.2 0 9.5 4.2 9.5 9.5z"/><path class="f" d="m489.3 719.5c0 5.2-4.2 9.5-9.4 9.5-5.3 0-9.5-4.3-9.5-9.5 0-5.2 4.2-9.5 9.5-9.5 5.2 0 9.4 4.3 9.4 9.5z"/><path class="f" d="m506.2 685.8c0 5.2-4.2 9.4-9.5 9.4-5.2 0-9.5-4.2-9.5-9.4 0-5.3 4.3-9.5 9.5-9.5 5.3 0 9.5 4.2 9.5 9.5z"/><path class="f" d="m603.3 698.4c0 5.3-4.3 9.5-9.5 9.5-5.3 0-9.5-4.2-9.5-9.5 0-5.2 4.2-9.5 9.5-9.5 5.2 0 9.5 4.3 9.5 9.5z"/><path class="f" d="m670.8 667.8c0 5.3-4.3 9.5-9.5 9.5-5.3 0-9.5-4.2-9.5-9.5 0-5.2 4.2-9.5 9.5-9.5 5.2 0 9.5 4.3 9.5 9.5z"/><path class="f" d="m671.8 607.7c0 5.2-4.2 9.5-9.5 9.5-5.2 0-9.5-4.3-9.5-9.5 0-5.2 4.3-9.5 9.5-9.5 5.3 0 9.5 4.3 9.5 9.5z"/><path class="f" d="m726.7 601.4c0 5.2-4.3 9.5-9.5 9.5-5.3 0-9.5-4.3-9.5-9.5 0-5.3 4.2-9.5 9.5-9.5 5.2 0 9.5 4.2 9.5 9.5z"/><path class="f" d="m700.3 491.7c0 5.2-4.3 9.5-9.5 9.5-5.2 0-9.5-4.3-9.5-9.5 0-5.3 4.3-9.5 9.5-9.5 5.2 0 9.5 4.2 9.5 9.5z"/><path class="f" d="m736.2 415.7c0 5.3-4.3 9.5-9.5 9.5-5.3 0-9.5-4.2-9.5-9.5 0-5.2 4.2-9.5 9.5-9.5 5.2 0 9.5 4.3 9.5 9.5z"/><path class="f" d="m686.6 391.5c0 5.2-4.3 9.5-9.5 9.5-5.2 0-9.5-4.3-9.5-9.5 0-5.3 4.3-9.5 9.5-9.5 5.2 0 9.5 4.2 9.5 9.5z"/><path class="f" d="m608.5 348.2c0 5.3-4.2 9.5-9.5 9.5-5.2 0-9.4-4.2-9.4-9.5 0-5.2 4.2-9.5 9.4-9.5 5.3 0 9.5 4.3 9.5 9.5z"/><path class="f" d="m543.1 314.5c0 5.2-4.2 9.5-9.5 9.5-5.2 0-9.4-4.3-9.4-9.5 0-5.3 4.2-9.5 9.4-9.5 5.3 0 9.5 4.2 9.5 9.5z"/><path class="f" d="m550.5 264.9c0 5.2-4.2 9.5-9.5 9.5-5.2 0-9.5-4.3-9.5-9.5 0-5.2 4.3-9.5 9.5-9.5 5.3 0 9.5 4.3 9.5 9.5z"/><path class="f" d="m455.6 338.7c0 5.3-4.3 9.5-9.5 9.5-5.2 0-9.5-4.2-9.5-9.5 0-5.2 4.3-9.5 9.5-9.5 5.2 0 9.5 4.3 9.5 9.5z"/><path class="f" d="m458.8 305c0 5.2-4.3 9.5-9.5 9.5-5.3 0-9.5-4.3-9.5-9.5 0-5.3 4.2-9.5 9.5-9.5 5.2 0 9.5 4.2 9.5 9.5z"/><path class="f" d="m343.8 442.1c0 5.2-4.3 9.5-9.5 9.5-5.2 0-9.5-4.3-9.5-9.5 0-5.2 4.3-9.5 9.5-9.5 5.2 0 9.5 4.3 9.5 9.5z"/><path class="f" d="m358.6 478c0 5.2-4.3 9.5-9.5 9.5-5.3 0-9.5-4.3-9.5-9.5 0-5.3 4.2-9.5 9.5-9.5 5.2 0 9.5 4.2 9.5 9.5z"/><path class="f" d="m306.9 507.5c0 5.2-4.3 9.5-9.5 9.5-5.3 0-9.5-4.3-9.5-9.5 0-5.2 4.2-9.5 9.5-9.5 5.2 0 9.5 4.3 9.5 9.5z"/><path class="f" d="m386 401c0 5.2-4.3 9.5-9.5 9.5-5.3 0-9.5-4.3-9.5-9.5 0-5.3 4.2-9.5 9.5-9.5 5.2 0 9.5 4.2 9.5 9.5z"/></svg>