<svg version="1.2" xmlns="http://www.w3.org/2000/svg" width="1000" height="1000"><style>.s1{fill:#bc6348}.s4{fill:#491e1a}.s5{fill:#9b3f38}.s6{fill:#f2e7ad}</style><g id="Layer 1"><g id="&lt;Group&gt;"><g id="&lt;Group&gt;"><path id="&lt;Compound Path&gt;" fill-rule="evenodd" d="M778.3 501.3c0 152-123.2 275.3-275.3 275.3-152 0-275.3-123.3-275.3-275.3S351 226 503 226c152.1 0 275.3 123.3 275.3 275.3zm-173.5 0c0-56.2-45.6-101.8-101.8-101.8-56.2 0-101.8 45.6-101.8 101.8 0 56.2 45.6 101.8 101.8 101.8 56.2 0 101.8-45.6 101.8-101.8z" style="fill:#e77243"/><path id="&lt;Path&gt;" class="s1" d="M675.8 287c52.7 50.1 85.6 121 85.6 199.5 0 152.1-123.2 275.3-275.3 275.3-65.4 0-125.5-22.8-172.7-60.9 49.4 46.9 116.1 75.7 189.6 75.7 152.1 0 275.3-123.3 275.3-275.3 0-86.6-40-163.9-102.5-214.3z"/><path id="&lt;Path&gt;" d="M261.7 538.1c-.8-166.9 91.4-280 285.6-276.9 66.2 1.1 103.9 18.5 146.4 45.4-50-51.6-120.1-83.6-197.6-83.6-152 0-275.3 123.2-275.3 275.3 0 98 51.3 184 128.4 232.8-48.1-49.6-87.1-118.5-87.5-193z" style="fill:#f28a55"/><path id="&lt;Path&gt;" class="s1" d="M419.2 559.2c-10.3-16-17.5-37.7-17.5-58.2 0-56.2 44.5-101.2 100.7-101.2 34.7 0 67.8 19.6 86.2 46.2-1.4-19.8-16.4-35.5-32.6-46.8-24.1-16.8-48.2-20.1-76.2-15.3-43.1 7.6-100 55.3-92.2 119.9 2.8 23.5 12.8 42.3 31.6 55.4z"/></g><g id="&lt;Group&gt;"><path id="&lt;Compound Path&gt;" fill-rule="evenodd" d="M758.8 565.8c-1.6 19.3-10.3 44.3-19.7 61.4-14.6 26.5-42.7 40.4-67 57-22 15-32.4 39.3-53.3 54.8-43 31.8-94.6 18-139.6-2.3-23.4-10.6-47.2-21.7-72.9-25.9-24.1-4-47.9-5.3-70.5-15.8-45.3-21.2-70.1-54.6-65.3-104.7 1.9-19.2 7-36.3 3.1-55.9-5-25.5-20.4-45.8-23.9-71.5-10.1-73 23.1-123.6 59.8-150.9 29.1-21.5 69-26.7 103.4-35 22.7-5.4 45.9-10.5 67.5-19.8 21.6-9.2 42.4-18.4 66.3-17.1 19.2 1.1 39.8 3.4 56 14.8 17.8 12.4 29.1 30.9 44.3 45.3 34.4 32.5 79.4 55.8 94.9 103.4 11.4 34.5-8.2 69.4 2.9 105.5 6 19 15.8 36.2 14 56.7zm-155.3-153c-25.8-23.3-27.8-55.1-62.5-61.7-38.4-7.2-113.9-11.1-163 64.1-19.3 29.7-3.9 54.6-17.9 106.5-5.2 19-3.1 53.4 17.2 58 17.4 4 36.8 15.1 45 30.1 16.9 30.6 40 59 79.2 44.8 17.4-6.3 32-18 48.5-25.6 15.9-7.3 31.9-12.9 46.4-24.7 61.7-50.7 72.8-132.1 7.1-191.5z" style="fill:#723027"/><g id="&lt;Group&gt;"><path id="&lt;Path&gt;" class="s4" d="M404.9 597.9c10.2 18.6 22.8 36.3 39.7 44.2-9-8.8-16.5-20.4-23-32.3-5.1-9.2-14.4-17-24.9-22.5 3.3 3.3 6.1 6.8 8.2 10.6zM359.9 567.9q1.4.3 2.9.7c-7.2-12.9-7.1-33.6-3.5-46.9 14-51.9-1.4-76.8 18-106.5 49-75.2 124.5-71.3 162.9-64.1 3.9.8 7.3 1.8 10.4 3.1-6.6-7.1-14.7-12.6-27-14.9-38.4-7.3-113.9-11.1-163 64-19.3 29.7-3.9 54.6-17.9 106.6-5.2 19-3.1 53.4 17.2 58z"/><path id="&lt;Path&gt;" class="s4" d="M744.8 509.1c-11.1-36.1 8.5-71-2.9-105.5-15.5-47.6-60.5-70.9-94.9-103.4-15.2-14.4-26.5-32.9-44.3-45.3-2.3-1.7-4.8-3.1-7.3-4.4 12.8 11.7 22.6 26.1 35 37.9 34.3 32.5 79.4 55.7 94.9 103.3 11.3 34.6-8.3 69.5 2.9 105.5 5.9 19.1 15.7 36.2 14 56.7-1.6 19.3-10.3 44.3-19.8 61.4-14.5 26.5-42.6 40.4-66.9 57-22 15-32.4 39.4-53.3 54.8-43.1 31.8-94.6 18-139.6-2.3-23.4-10.6-47.2-21.7-72.9-25.9-24.2-4-48-5.3-70.5-15.8q-8.4-3.9-15.8-8.4c9.1 7.7 20 14.5 32.4 20.3 22.6 10.5 46.4 11.8 70.5 15.8 25.7 4.2 49.5 15.3 72.9 25.9 45 20.3 96.6 34.1 139.6 2.3 20.9-15.5 31.3-39.8 53.3-54.8 24.3-16.6 52.4-30.5 67-57 9.4-17.1 18.1-42.1 19.7-61.4 1.8-20.5-8-37.7-14-56.7z"/></g><path id="&lt;Compound Path&gt;" fill-rule="evenodd" class="s5" d="M337.9 325.2c-6.7 9.2-18.6 14.2-25.3 23.5-8.4 11.8-12.5 27.5-16.6 41.2-4.2 14.2-3.2 27.4-1.8 41.9.9 9.1 7.6 31.6-.6 39-13 11.9-26.3-16.8-23.9-64.3.7-13.8 16.7-49.8 19-53 16.6-29.3 36.4-37.9 42.7-38.8 8.8-1.2 11.2 4 6.5 10.5zm-28.7 3.8-2.5 4.7q1.3-2.3 2.5-4.7zM421 297.2c-7.3 1-55.6 19.1-64.9 5.5-5.1-7.5 6.8-9.9 12.3-11.1 12.1-2.6 25.7-3.4 38.1-4.6 13-1.2 26.3-3.6 38.8-7.1 10.7-2.9 25.1-13.8 36.2-9.3 4.2 19.1-49.9 25.1-60.5 26.6zm-50.8 8h-.1.1z"/><path id="&lt;Path&gt;" class="s5" d="M628.6 585.1c-4.9 1.5-8.2 10.8-10.9 14.4-4.3 5.9-9.5 11.3-15 16-18.3 15.7-44 17.4-64 28.5-4 1.1-8 2.5-11.1 4.5-9.2 5.9-20 24.1-.8 21.4 10.4-1.4 21.4-11.7 30.8-16.4 22.8-11.2 54.7-21.9 71.4-41.9 4.3-5.2 14.7-31.2-.4-26.5z"/><path id="&lt;Compound Path&gt;" fill-rule="evenodd" class="s5" d="M677.1 511.7c-.6 12.8-3.7 25.9-7.1 38-1.9 6.4-16.8 39.5-26.7 29.1-6.2-6.5 6.4-23.3 15.3-36.2 1.3-4.7 2.3-9.4 2.8-13.5.9-6.4.6-13.2.6-19.8 0-5-2.9-15.6 0-19.7 11-15.9 15.3 16.5 15.1 22.1zM666 529.9l-4.3 8.1c2.1-3.3 3.7-6.1 4.3-8.1z"/><path id="&lt;Path&gt;" class="s5" d="M301.1 570.9c1.6-4.5 5.5-14.1.2-17.1-4.2-2.4-10.7 2.7-12.8 6.1-2.9 4.5-7.8 17.5-6.2 42 .6 9.1 1.3 33.7 12.6 37.4 15 4.8 4.5-25.1 3.4-30.3-2.8-13.4-1.7-25.7 2.8-38.1z"/><path id="&lt;Path&gt;" class="s6" d="M344.3 379.3c0 3.2-2.6 5.8-5.8 5.8-3.2 0-5.8-2.6-5.8-5.8v-24.6c0-3.2 2.6-5.8 5.8-5.8 3.2 0 5.8 2.6 5.8 5.8zM279.1 402.7c-2.9 1.4-6.4.1-7.7-2.8-1.3-2.9-.1-6.4 2.8-7.7l22.4-10.3c3-1.3 6.4-.1 7.7 2.9 1.4 2.9.1 6.3-2.8 7.6zM439.4 712.8c-2.9 1.4-6.3.1-7.7-2.8-1.3-2.9 0-6.4 2.9-7.7L457 692c2.9-1.3 6.3-.1 7.7 2.9 1.3 2.9 0 6.3-2.9 7.6zM686.2 392.2c-2.9 1.3-6.3.1-7.7-2.9-1.3-2.9 0-6.3 2.9-7.6l22.4-10.3c2.9-1.4 6.3-.1 7.7 2.8 1.3 2.9 0 6.4-2.9 7.7zM473.1 311.8c-2.5 2-6.2 1.5-8.1-1-2-2.5-1.5-6.2 1-8.1l19.5-15.1c2.5-2 6.2-1.5 8.1 1 2 2.6 1.5 6.2-1 8.2zM617.7 367.8c-2.8-1.7-3.6-5.3-1.9-8 1.7-2.8 5.2-3.6 8-1.9l20.9 13c2.7 1.7 3.6 5.2 1.9 8-1.7 2.7-5.3 3.5-8 1.8zM567 294.7c-2.8 1.5-6.3.4-7.8-2.5-1.5-2.8-.4-6.3 2.5-7.8l21.8-11.4c2.9-1.4 6.4-.3 7.9 2.5 1.4 2.9.3 6.4-2.5 7.8zM302.8 487.8c-2.4-2.2-2.6-5.9-.5-8.2 2.2-2.4 5.8-2.6 8.2-.5l18.4 16.5c2.4 2.1 2.5 5.8.4 8.2-2.1 2.4-5.8 2.6-8.2.4zM324.2 629.2c-2.5 2-6.2 1.5-8.1-1.1-1.9-2.5-1.4-6.2 1.1-8.1l19.7-14.9c2.6-1.9 6.2-1.4 8.1 1.2 2 2.5 1.5 6.2-1.1 8.1zM510.5 692.4c-2.3-2.1-2.5-5.8-.4-8.2 2.1-2.4 5.8-2.6 8.2-.4l18.4 16.4c2.3 2.1 2.6 5.8.4 8.2-2.1 2.4-5.8 2.6-8.2.4zM581 645.8c-3.1-.7-5.1-3.7-4.5-6.9.6-3.1 3.7-5.1 6.8-4.5l24.2 4.8c3.1.7 5.2 3.7 4.5 6.9-.6 3.1-3.6 5.1-6.8 4.5zM576.1 749c-2.9 1.4-6.3.1-7.7-2.8-1.4-2.9-.1-6.3 2.8-7.7l22.2-10.5c2.9-1.4 6.4-.2 7.8 2.7 1.3 2.9.1 6.4-2.8 7.8zM682.2 600c2.6-1.8 6.2-1.2 8.1 1.4 1.8 2.6 1.2 6.2-1.4 8.1l-20.1 14.3c-2.6 1.8-6.2 1.2-8.1-1.4-1.8-2.6-1.2-6.2 1.4-8.1zM688 520.5c2.7 1.6 3.6 5.2 2 7.9-1.7 2.8-5.3 3.7-8 2l-21.1-12.7c-2.8-1.6-3.7-5.2-2-8 1.7-2.7 5.2-3.6 8-1.9zM651.2 679.5c3.2.2 5.6 2.9 5.5 6.1-.2 3.2-2.9 5.6-6.1 5.5l-24.6-1.2c-3.2-.2-5.7-2.9-5.5-6.1.1-3.2 2.8-5.7 6-5.5zM708.6 457.6c-1.9 2.5-5.5 3-8.1 1.1-2.6-1.9-3.1-5.5-1.2-8.1l14.8-19.7c1.9-2.6 5.5-3.1 8.1-1.2 2.6 1.9 3.1 5.5 1.2 8.1zM376.4 684.3c-2 2.6-5.6 3.1-8.2 1.2-2.5-1.9-3-5.6-1.1-8.1l14.7-19.8c2-2.5 5.6-3.1 8.2-1.1 2.5 1.9 3 5.5 1.1 8.1zM409.4 309.6c2.1 2.4 1.8 6.1-.6 8.1-2.5 2.1-6.1 1.8-8.2-.6l-16-18.8c-2-2.5-1.8-6.1.7-8.2 2.4-2.1 6.1-1.8 8.2.7z"/></g></g></g></svg>