<svg version="1.2" xmlns="http://www.w3.org/2000/svg" width="1000" height="1000"><style>.b{fill:#bc6348}.e{fill:#82d8ce}.f{fill:#c7f2ed}.g{fill:#ef7bbd}.h{fill:#fff}.i{fill:#723027}</style><path fill-rule="evenodd" d="M778.4 501.3c0 152-123.3 275.3-275.3 275.3-152.1 0-275.3-123.3-275.3-275.3S351 226 503.1 226c152 0 275.3 123.3 275.3 275.3zm-173.6 0c0-56.2-45.5-101.8-101.7-101.8s-101.8 45.6-101.8 101.8c0 56.2 45.6 101.8 101.8 101.8 56.2 0 101.7-45.6 101.7-101.8z" style="fill:#e77243"/><path class="b" d="M675.8 287c52.8 50.1 85.7 121 85.7 199.5 0 152.1-123.3 275.3-275.3 275.3-65.4 0-125.5-22.8-172.8-60.9 49.4 46.9 116.2 75.7 189.7 75.7 152 0 275.3-123.3 275.3-275.3 0-86.6-40.1-163.9-102.6-214.3z"/><path d="M261.8 538.1c-.8-166.9 91.4-280 285.5-276.9 66.2 1.1 103.9 18.5 146.4 45.4-50-51.6-120-83.6-197.5-83.6-152.1 0-275.3 123.2-275.3 275.3 0 98 51.2 184 128.4 232.8-48.1-49.6-87.2-118.5-87.5-193z" style="fill:#f28a55"/><path class="b" d="M419.3 559.2c-10.4-16-17.6-37.7-17.6-58.2 0-56.2 44.6-101.2 100.8-101.2 34.7 0 67.7 19.6 86.1 46.2-1.4-19.8-16.3-35.5-32.5-46.8-24.2-16.8-48.3-20.1-76.3-15.3-43.1 7.6-99.9 55.3-92.1 119.9 2.8 23.5 12.7 42.3 31.6 55.4z"/><path fill-rule="evenodd" d="M765 498.8c-9.4 24.5-31.8 41.2-43 64.3-9.9 20.1-4.1 43.5-2.2 64.4 6.1 65.3-74.7 95.5-129.7 101.3-35.3 3.7-64.6-1.1-98.3 14.4-42.9 19.7-83.1-1.7-117.5-30.1-29.3-24.1-42.2-58.6-75.1-78.5-17.8-10.8-36.8-19.9-47.4-38.6-8.3-14.3-13.3-29.1-15.3-45.6-3.3-26.9 8.7-58.2 20.3-82.5 6.4-13.5 15.2-26.3 19.8-40.8 3.7-11.7-9.3-67.5 43.5-124.2 13-13.9 30.3-22.9 48.5-29 37.6-12.8 77.5-6.5 117.1-10.1 47.5-4.3 94.2-18.7 135 16.6 19.3 16.7 37.4 31.5 58.8 46.2 24.3 16.7 46.6 31.6 59.6 59.1 15 31.5 39.1 78.2 25.9 113.1zm-157-30.6c-11-19.9-8.2-52.2-24.2-69.6-17-18.4-71.7-40.1-116-23.2-37.6 14.3-66.7 15.1-82.3 50.6-15.8 35.9 6.3 40.1-3.2 72.8-3.8 13.2-15.3 24.1-17.9 38-6.2 33.7 50.3 69.3 96 89.6 116 51.7 148.9-53 161.3-85.4 10.4-27.2-1.2-50.2-13.7-72.8z" style="fill:#92f4ea"/><path class="e" d="M286.5 620.9c-11-6.8-22.5-12.8-32.2-20.9 10.9 16 28.4 24.5 44.9 34.6 6.9 4.2 13 9 18.5 14.3-8.8-10.6-18.5-20.4-31.2-28zM373.9 567.4c-7.5-10-11.4-20.4-9.5-30.6 2.6-13.9 14.1-24.8 17.9-38 9.5-32.7-12.6-36.9 3.2-72.8 15.6-35.5 44.7-36.3 82.3-50.6 39-14.9 86.3.2 108.5 16.6-1.5-2.6-3.2-5-5.2-7.1-16.9-18.5-71.7-40.1-116-23.2-37.5 14.3-66.6 15.1-82.3 50.6-15.8 35.9 6.4 40.1-3.1 72.8-3.9 13.2-15.4 24.1-18 37.9-2.7 15 6.8 30.3 22.2 44.4zM739.1 385.7c-6.2-13-14.4-23.2-24-32.1 4.3 5.5 8.1 11.5 11.4 18.4 14.9 31.5 39.1 78.1 25.8 113.1-9.3 24.5-31.7 41.2-43 64.3-9.8 20.1-4.1 43.5-2.1 64.4 6 65.3-74.7 95.5-129.8 101.3-35.2 3.7-64.6-1.1-98.3 14.4-42.8 19.7-83-1.7-117.5-30.1q-3.8-3.1-7.3-6.5c6 7.1 12.5 14 20 20.2 34.4 28.4 74.6 49.8 117.5 30.1 33.7-15.5 63-10.7 98.3-14.4 55-5.8 135.8-36 129.7-101.3-1.9-20.9-7.7-44.3 2.2-64.4 11.2-23.1 33.6-39.8 43-64.3 13.2-34.9-10.9-81.6-25.9-113.1z"/><path class="f" d="M410.6 283.1c-12.8-6.6-27-3.9-40.5 1.9-18 1.1-43.6 19.4-53.2 29.7-13.8 14.8-23.7 44.9-18.4 64.6 1.8 6.7 8.5 18.7 17.1 17.8 9.4-1 11.9-15.5 13.7-22.2 6.2-22.4 12-47.6 33.8-59.4 9.2-5 76.5-17.4 47.5-32.4zM297.7 465.6c1.2-10.2-7-21.7-17.6-15.6-5.5 3.2-7.8 12.5-9.6 21.4-6.7 11.4-13.3 23.2-17.9 35.3-4.4 11.4-9.9 48.9 9.2 50.6 20 1.8 12-33.8 13.7-45.3 2.5-17.7 20.3-29.5 22.2-46.4zM650.6 524.2c-9.8-10.5-14.3 8.3-14.9 14.4-2.4 22.7-8.7 36.5-19.9 55.6-8.5 14.8-19.3 35.6-63.2 49.5 0 0-29.5 3-29.8 13-.6 22.9 59.6-3.9 68-10 10.2-7.3 21.1-14.1 28.6-24.4 6.3-8.7 11.5-19.4 15.9-29.2 5.5-12.4 12.3-25.1 16.1-38.2 2-7 4.8-24.7-.8-30.7zM616.1 403.8c-3.1-11.8-4.2-29.7-14.1-38.2-5.7-5-43.8-21.1-45.1-7.9-.7 6.8 10.2 14.7 15.2 15.7 5.2 1 8.8 1.3 13.6 4.5 10.7 8.8 13.4 17.6 15.7 30.5 1.3 7.4 1.6 34.1 14.8 32.4 12.9-1.7 1.7-30-.1-37z"/><path class="g" d="M301.6 441.2c-2.9 1.3-6.4 0-7.7-2.9-1.3-2.9-.1-6.3 2.8-7.7l22.4-10.3c3-1.3 6.4 0 7.7 2.9 1.4 2.9.1 6.3-2.8 7.7zM375.3 611.3c-.8-3.1 1-6.3 4.1-7.1 3.1-.9 6.3 1 7.1 4L393 632c.9 3.1-.9 6.3-4 7.2-3.1.8-6.3-1-7.1-4.1zM622.2 295.9c-.9-3.1.9-6.2 4-7.1 3.1-.8 6.3 1 7.1 4.1l6.6 23.8c.8 3-1 6.2-4.1 7.1-3.1.8-6.3-1-7.1-4.1zM390.8 298.9c3.2.4 5.5 3.3 5.1 6.4-.4 3.2-3.3 5.5-6.5 5.1l-24.5-3c-3.2-.4-5.4-3.3-5-6.5.4-3.2 3.3-5.4 6.4-5zM654.2 562c2-2.5 5.7-2.9 8.2-.9 2.5 2 2.9 5.7.9 8.2l-15.4 19.2c-2 2.5-5.7 2.9-8.2.9-2.5-2-2.9-5.6-.9-8.1zM338.9 526.1c2-2.5 5.6-2.9 8.1-.9s2.9 5.7.9 8.2l-15.4 19.2c-2 2.5-5.7 2.9-8.2.9-2.5-2-2.9-5.6-.9-8.1zM685.4 425c3.1-.6 6.1 1.5 6.7 4.6.6 3.2-1.5 6.2-4.7 6.8l-24.2 4.4c-3.2.5-6.2-1.6-6.8-4.7-.6-3.2 1.5-6.2 4.7-6.7zM625.1 664c1-3 4.3-4.7 7.3-3.7 3.1 1 4.7 4.3 3.7 7.4l-7.6 23.4c-1 3-4.3 4.7-7.3 3.7-3.1-1-4.8-4.3-3.8-7.3zM576.8 312.6c2.5 2 2.9 5.6.9 8.1-2 2.6-5.7 3-8.2 1l-19.3-15.4c-2.5-2-2.9-5.6-.9-8.1s5.7-3 8.2-1z"/><path class="h" d="M406.3 337.9c-.7-3.1 1.3-6.2 4.4-6.9 3.2-.7 6.3 1.3 7 4.4l5.3 24.1c.7 3.1-1.2 6.2-4.4 6.9-3.1.7-6.2-1.3-6.9-4.4z"/><path class="i" d="M358.6 395.9c-3.2-.5-5.5-3.4-5-6.5.4-3.2 3.3-5.5 6.5-5l24.4 3.2c3.2.4 5.4 3.3 5 6.5-.4 3.2-3.3 5.4-6.5 5zM332.2 582.6c-3.2-.5-5.4-3.4-5-6.6.4-3.1 3.3-5.4 6.5-4.9l24.5 3.2c3.1.4 5.4 3.3 4.9 6.5-.4 3.2-3.3 5.4-6.5 5zM271 565.7c-1.5 2.8-5 4-7.8 2.5-2.9-1.4-4-4.9-2.6-7.8l11.1-22c1.5-2.8 4.9-4 7.8-2.5 2.9 1.4 4 4.9 2.6 7.8zM513.5 707.9c2 2.5 1.5 6.2-1 8.1-2.5 2-6.1 1.6-8.1-.9l-15.3-19.3c-2-2.6-1.6-6.2.9-8.2 2.5-2 6.2-1.6 8.2 1zM633.7 390.4c2 2.5 1.6 6.2-.9 8.2-2.6 2-6.2 1.5-8.2-1l-15.3-19.3c-2-2.5-1.5-6.2 1-8.2 2.5-2 6.1-1.5 8.1 1zM615.6 632.1c-1.5 2.8-5 3.9-7.8 2.4-2.9-1.5-3.9-5-2.4-7.8l11.5-21.8c1.5-2.8 5-3.9 7.8-2.4s3.9 5 2.4 7.8zM696.5 519.7c-2.8-1.5-3.9-5.1-2.3-7.9 1.5-2.8 5-3.9 7.8-2.3l21.7 11.6c2.8 1.6 3.9 5.1 2.4 7.9-1.5 2.8-5.1 3.9-7.9 2.4zM705.3 390.6c-.3-3.2 2-6.1 5.2-6.4 3.2-.3 6 2.1 6.3 5.2l2.4 24.6c.3 3.2-2 6-5.2 6.3-3.2.3-6.1-2-6.4-5.2zM510.1 274.5c-.3-3.1 2.1-6 5.2-6.3 3.2-.3 6.1 2 6.4 5.2l2.4 24.6c.3 3.2-2.1 6-5.3 6.3-3.1.3-6-2-6.3-5.2z"/><path class="h" d="M516.2 332.4c2.2-2.3 5.8-2.4 8.2-.2 2.3 2.2 2.4 5.9.1 8.2l-17 17.8c-2.2 2.3-5.9 2.4-8.2.2-2.3-2.2-2.4-5.9-.2-8.2zM459.5 295c-2.6-2-3-5.6-1.1-8.2 2-2.5 5.6-3 8.1-1.1l19.6 15.1c2.5 1.9 3 5.6 1.1 8.1-2 2.5-5.6 3-8.2 1.1zM280.2 492.2c-2.6-2-3-5.6-1.1-8.1 2-2.6 5.6-3.1 8.1-1.1l19.6 15c2.5 1.9 3 5.6 1.1 8.1-2 2.6-5.6 3.1-8.2 1.1zM411.2 715.3c-3.1 1-6.4-.6-7.3-3.7-1-3 .6-6.3 3.7-7.3l23.5-7.6c3-.9 6.3.7 7.3 3.8.9 3-.7 6.3-3.8 7.3zM520 668.9c-2.2-2.3-2.3-5.9 0-8.2 2.2-2.3 5.9-2.4 8.2-.1l17.6 17.2c2.3 2.3 2.3 5.9.1 8.2-2.3 2.3-5.9 2.4-8.2.1zM671.3 616.5c-3.1.5-6.1-1.7-6.5-4.9-.5-3.1 1.7-6.1 4.9-6.5l24.3-3.6c3.2-.5 6.2 1.7 6.6 4.9.5 3.1-1.7 6.1-4.9 6.6zM639.4 480.6c-1.8-2.6-1-6.2 1.6-8 2.7-1.8 6.3-1 8.1 1.6l13.6 20.6c1.8 2.7 1 6.3-1.6 8-2.7 1.8-6.3 1.1-8.1-1.6zM746.2 457.2c2.9-1.4 6.4-.2 7.7 2.7 1.4 2.9.2 6.4-2.7 7.7l-22.3 10.6c-2.9 1.4-6.4.1-7.7-2.8-1.4-2.9-.2-6.3 2.7-7.7zM340 650.9c-.5-3.2 1.7-6.1 4.9-6.6 3.1-.5 6.1 1.6 6.6 4.8l3.8 24.3c.5 3.2-1.7 6.2-4.8 6.7-3.2.5-6.2-1.7-6.7-4.9zM676.6 350.6c2.9-1.3 6.3-.1 7.7 2.8 1.4 2.9.1 6.3-2.8 7.7l-22.2 10.6c-2.9 1.3-6.4.1-7.8-2.8-1.3-2.9-.1-6.4 2.8-7.7zM308.5 585.8c2.9-1.3 6.3-.1 7.7 2.8 1.4 2.9.1 6.3-2.8 7.7l-22.2 10.6c-2.9 1.3-6.4.1-7.8-2.8-1.3-2.9-.1-6.3 2.8-7.7zM457 656.2c1.7 2.7 1 6.3-1.7 8-2.7 1.8-6.2 1.1-8-1.6L433.8 642c-1.8-2.7-1.1-6.3 1.6-8.1 2.7-1.7 6.3-1 8 1.7zM348.3 347.2c1.8 2.6 1.1 6.2-1.6 8-2.7 1.8-6.3 1-8-1.7l-13.6-20.6c-1.7-2.6-1-6.2 1.7-8 2.7-1.8 6.2-1 8 1.7z"/></svg>