<svg version="1.2" xmlns="http://www.w3.org/2000/svg" width="1000" height="1000"><style>.b{fill:#bc6348}.e{fill:#efd09a}.f{fill:#fff}.g{fill:#723027}.h{fill:#b57061}</style><path fill-rule="evenodd" d="M778.7 505.4c-2.2 152-127.2 273.4-279.2 271.3-152.1-2.2-273.5-127.3-271.3-279.3 2.2-152 127.2-273.5 279.2-271.3 152 2.2 273.5 127.2 271.3 279.3zm-173.5-2.5c.8-56.2-44.1-102.5-100.3-103.3-56.2-.8-102.4 44.1-103.2 100.3-.8 56.2 44.1 102.5 100.3 103.3 56.2.8 102.4-44.1 103.2-100.3z" style="fill:#e77243"/><path class="b" d="M679.3 289.6c52 50.9 83.9 122.2 82.7 200.8-2.1 152-127.2 273.4-279.2 271.2-65.4-.9-125.2-24.6-171.8-63.4 48.7 47.6 115 77.4 188.5 78.5 152 2.1 277-119.3 279.2-271.3 1.3-86.6-37.6-164.5-99.4-215.8z"/><path d="M261.6 534.7c1.7-166.9 95.5-278.6 289.6-272.7 66.1 2 103.6 19.9 145.7 47.4-49.3-52.2-118.8-85.3-196.3-86.4-152-2.2-277.1 119.3-279.3 271.3-1.4 98 48.6 184.7 125 234.6-47.3-50.2-85.4-119.7-84.7-194.2z" style="fill:#f28a55"/><path class="b" d="M418.9 558c-10.2-16.1-17.1-37.9-16.8-58.3.8-56.3 46-100.7 102.2-99.8 34.7.5 67.5 20.6 85.5 47.4-1.1-19.8-15.8-35.7-31.9-47.2-23.9-17.1-47.9-20.9-76-16.4-43.2 6.9-100.7 53.8-93.9 118.5 2.5 23.6 12.2 42.5 30.9 55.8z"/><path fill-rule="evenodd" d="M716.4 625.7c-14.9 20.6-21.2 43.4-33.1 65.2-17.1 31.3-42 46.9-74.3 60.9-38.1 16.6-78.8 20.8-119.5 12.4-52.3-10.7-85.9-57-134.3-76.3-21.2-8.4-41.2-13.8-59.4-28.2-21.1-16.8-35.6-38-46.6-62.5-17.9-40-7.1-76.8-.4-117.3 6.5-40-7.1-78.6 15.1-116.9 15.3-26.2 39.7-48.4 63.4-69.4 6.6-9.3 15.5-16.8 25.6-23l.2-.2-.1.2c15.1-9.2 32.5-15.1 47.9-18.7 34.9-8.2 69.4-13.5 106.7-13 36.3.5 76.7 3.5 107.5 23.5 15.2 9.9 25.9 24.6 36.9 38.7 15.8 20.1 33.8 36.3 52.2 53.8 38.8 36.8 65.3 84.8 69.5 137.9 4.5 55.3-27.8 91.9-57.3 132.9zM580.9 422.5c-16-15.2-29.2-34.2-51.2-37.7-11-1.7-53.3 8.7-64.4 9.6-31.7 2.7-56.9 32.8-67.2 48.6-14.2 21.9 1.7 53.1-2.2 77.2-9.2 57.7 10 48.2 35.2 68.9 71.6 59 121.7 21.8 163.4-16.6 16.1-14.8 8.2-37 19.6-56.7 28.4-49.2-4.9-66.4-33.2-93.3z" style="fill:#f2e7ad"/><path class="e" d="M401.1 569.1c-7.2-7.4-9.9-19.3-5.2-48.9 3.9-24.1-12-55.3 2.2-77.2 10.3-15.8 35.5-45.9 67.2-48.6 11.1-.9 53.4-11.3 64.4-9.6 5.1.8 9.7 2.5 14 4.7-7.7-6.6-16.1-11.7-26.5-13.3-11-1.8-53.4 8.7-64.5 9.6-31.7 2.7-56.9 32.8-67.1 48.6-14.3 21.9 1.7 53.1-2.2 77.2-7 43.3 2.1 48.7 17.7 57.5zM431.1 589.1c-4.4-3.6-8.7-6.3-12.6-8.6 6.6 5.4 13 10 19.3 13.9q-3.4-2.5-6.7-5.3zM342.7 679.3c-16.7-6.6-32.6-11.4-47.5-20.1q.3.2.6.5c18.2 14.4 38.2 19.8 59.4 28.2 11.1 4.5 21.4 10.3 31.4 16.8-13.9-9.9-28.1-19.1-43.9-25.4zM773.7 492.8c-4.2-53.1-30.7-101.1-69.5-137.9-18.4-17.5-36.4-33.7-52.2-53.8-11-14.1-21.7-28.8-36.9-38.7q-2.5-1.6-5-3.1c11.4 9.5 20.2 21.6 29.4 33.2 15.8 20.1 33.7 36.3 52.1 53.7 38.9 36.9 65.3 84.9 69.6 137.9 4.4 55.4-27.8 92-57.4 133-14.8 20.6-21.2 43.4-33 65.1-17.2 31.4-42 46.9-74.3 61-38.2 16.6-78.8 20.7-119.6 12.4-18.9-3.9-35.3-12.4-50.9-22.6 19.4 13.9 39.4 26.3 63.5 31.2 40.7 8.4 81.4 4.2 119.5-12.4 32.3-14 57.2-29.6 74.3-60.9 11.9-21.8 18.2-44.6 33.1-65.2 29.5-41 61.8-77.6 57.3-132.9z"/><path class="f" d="M375.3 274c-7.4 1.2-26.8 13.4-29.8 15.3l.8-.2c-12.2 6.4-20.6 21.7-29.8 30.6-13.6 13.2-30.4 23.2-37.5 41.5-6.1 15.9-9.4 35.4-6.2 52.6 1.6 8.7 5.8 19 13.5 8.4 3.8-5.1 3.4-17.5 3.8-24 1.2-18.6 2.4-33 15.4-47.5 6.4-7 14.3-11.1 21.4-17.3 6.3-5.6 8.6-12 13.2-18.8 11.3-16.9 31.6-14.2 44.4-28.1 8.7-9.4 1-14.3-9.3-12.5zM642.4 471.4c-10.1 5.6 8.1 21.7-8.4 51-4 7.1-11.3 10.4-15 17.7-4.1 8.1-4.4 17.8-6.2 26.3-6.9 32.5-26.6 46.4-79.1 59-6.9 1.6-16-1.7-21.2 3.9-7.5 8-1.1 11.5 7.2 12.8 14.2 2.2 31.9-4.6 44.4-8.9 30.6-10.6 55.8-37 66.4-67.6 6-17.2 11.2-29.9 21.2-44.5 5.6-8.2 6.6-58.6-9.3-49.7z"/><path class="g" d="M359 447.7c22.1-25.5 47.1-48.7 68.6-74.9 12.3-15.1 50.3-59.8 27.5-77.7-12-9.4-29.4-8.5-41.1-2.7-19.9 10-37.1 34.3-53.5 48.9-25.2 22.5-49.1 48.4-75.1 70.3-5.6 4.7-10.4 10.5-17.6 11.9-15.1 2.8-6.3-5.5-8.4-13-3.2-11.2-12-6.9-16.9 1.4l-.1-.6q-.4 1-.7 2c-2 3.9-3 8.5-2.4 12.8-.6 12 3.7 23.6 18.4 22.3 17.2-1.6 36.3-17.7 47.7-29.9 91.3-97.8 116-124.9 134.5-115 21.3 9.6-16.7 45.1-25.8 55.4-29.9 33.9-58.3 69.1-88 103.1-33.8 38.7-68.3 87-71.6 138.3-1.6 24.4 15.2 23.6 32.5 11.8 18.2-12.4 35.4-25.4 54.3-36.9 16.6-10.2 33.5-22.5 49-34.1 3.7-2.8 15.1-9.2 16.1-13.5 3.4-13.7-13.8-4.6-19-1.7-28.2 16.3-49.8 43.1-78.8 58.5-9.9 5.3-39.4 27.4-42.4 8.6-2.5-15.5 16-37 23.7-49.2 21.8-34.5 42.7-65.5 69.1-96.1zM631.2 281.3c-18.5 2.7-31.3 17.4-44.5 29.2-32.7 28.9-55.6 45.7-87 75.7 0 0-19.7 14.9-12.5 21.5 7.6 7 18.1-6.4 22.9-11 15.9-15.5 30.9-31.8 47.1-47.1 12.9-12.2 24.8-24.7 39.5-35.3 8.5-6.1 31.7-25.2 42.8-20.2 17.6 7.9-21.8 72.9-29 85-8.7 14.6-18.8 26.8-29 40.5-5.7 7.6-7.6 15.7 4.3 10.1 7.3-3.5 12.9-12.8 17.4-19 11.1-15.5 19.8-32.8 27.6-50.3 7.7-17.2 20.4-33.7 26.1-51.3 7.3-22.1-3.4-31-25.7-27.8zM495.9 627.2c-12.4 13.7-10.2 32.3-83 83.8-13.5 9.6-35.3 17.8-25.7-7.3 8-20.9 16.6-37.7 27-57.9 6.8-13.2 21.1-24.3 31.1-34.6 6.8-7 14.4-11.4 12.7-22.3 2.6-23.8-73.4 75.7-85.1 118.5-5.4 20 4.2 30.9 24.4 25.9 17.2-4.2 34.8-19.6 48.7-31.1 20.5-16.9 36.1-37.7 53.6-57.3 11.5-12.9 51.9-51.4 37.5-53.1-15.2-2.7-32.2 25.6-41.2 35.4zM745.4 593.6c-3.9-10.2-14.4-7.8-22.4-4.3-30.2 13.3-49.1 37.5-70.5 61.5-14.8 16.6-29.8 35.3-45.8 50.3-8.1 7.6-30.8 20.4-32.5 5-3-25.7 30.6-69.1 44.5-87.4 28.2-37.2 59.2-71.8 83-111.4 14.3-23.7 38.6-77.7-12.4-70.7-19.2 2.7-36.2 16.7-51 28.1-11.5 8.9-27 21.9-36.5 34.9-6 5-5.9 6.7-1.9 13.1 6.5 10.5 12.2-7.7 18.4-13.7 12-11.7 87.6-78.9 87.8-37 .1 13.8-11.6 32-19.1 41.9-12.6 16.9-27.3 32.2-39.5 49.3-27.9 39.3-59.3 81.6-77.7 126.3-4.5 10.8-20.7 43.2-5.2 51 13.2 6.7 36.6-11.2 46.9-18.3 43.2-29.9 67-86.3 116.5-105.6 8.4-3.3 22.1-.4 17.4-13z"/><path class="h" d="M249.1 412.5c-4.1 6.3-6.8 18.5.4 24 8.7 6.6 18.8.9 26.4-4.6 26.5-18.9 48.6-43.8 72.7-65.4 1.9-1.8-.8-4.6-2.7-2.9-18.8 16.9-36.5 35.1-55.7 51.6-6.8 5.8-13.7 11.9-21.2 16.6-4.8 3-10.7 5.3-16 2.4-7-3.8-3.6-14.9-.5-19.7 1.4-2.1-2-4.2-3.4-2zM287.4 532.4c9.7-33.2 39.2-58 63.2-81.3 1.8-1.7-.9-4.6-2.8-2.8-24.4 23.7-54.3 49.1-64.2 83-.7 2.5 3.1 3.6 3.8 1.1zM366.7 433.2c14.2-13.9 27.8-28.3 38.9-45 1.4-2.1-2-4.1-3.4-2-10.9 16.3-24.2 30.5-38.3 44.1-1.8 1.8.9 4.7 2.8 2.9zM260.7 606.3c2.6 0 2.6-3.9.1-4-2.6 0-2.6 3.9-.1 4z"/><path class="h" d="M258.8 604.8c4.2 16.2 23.8 2.4 31.5-3.1 2-1.5.1-5-2-3.5-5.3 3.9-22.6 17.4-25.6 5.6-.7-2.5-4.5-1.5-3.9 1zM499.6 400.7c9.6-13 21.4-24 32.6-35.6 1.8-1.8-1-4.6-2.7-2.8-11.5 11.8-23.5 23.1-33.3 36.3-1.5 2.1 1.9 4.1 3.4 2.1zM632.1 289.6c5-2 10.8-2 15.2 1.5 4.9 3.9 3.6 10.1.5 14.8-1.4 2.1 2 4.2 3.4 2 4-6.1 4.9-13.4-.5-19-5-5.2-13.3-5.6-19.6-3.2-2.3 1-1.4 4.8 1 3.9zM587 426.5c4.2-5.6 8.8-10.8 13.4-16.1 1.7-1.9-1.1-4.7-2.8-2.8-4.8 5.5-9.6 11-14 16.8-1.5 2.1 1.9 4.1 3.4 2.1zM605 507.7c3.9-10.7 14.2-18 22.8-24.9 2-1.6-.8-4.4-2.7-2.8-9.3 7.4-19.7 15.1-23.9 26.6-.8 2.4 3 3.5 3.8 1.1zM698.2 444.9c2.5 0 2.6-4 0-4-2.5 0-2.6 3.9 0 4z"/><path class="h" d="M698.7 444.8c24.8-3 8.4 27.4 2.8 38.3-1.2 2.2 2.2 4.3 3.3 2 7.6-14.5 23-47.8-7.1-44.1-2.5.3-1.5 4.1 1 3.8zM573.2 722.5c-5.8-9.2-4-20.2-.9-30.1.8-2.5-3-3.5-3.8-1.1-3.4 10.9-5.1 23.1 1.3 33.2 1.4 2.1 4.8.2 3.4-2zM701.5 613.9c11.6-8 24.4-14 38.5-15.8 2.5-.3 1.5-4.2-1-3.8-14.4 1.8-27.6 8-39.5 16.2-2 1.4-.1 4.9 2 3.4zM375.1 715.4c-1.4 6.9 0 13.5 8 14.5 7 .8 15.1-3.3 20.5-7.4 2.1-1.6-.7-4.4-2.7-2.9-3.9 3-8.6 5-13.4 6-7.1 1.6-9.9-2.3-8.6-9.1.5-2.5-3.3-3.6-3.8-1.1zM504.9 631.8c6-11.1 14.9-19.9 23.1-29.4 1.7-1.9-1.1-4.7-2.8-2.8-8.3 9.7-17.5 18.8-23.6 30.1-1.3 2.3 2.1 4.3 3.3 2.1zM441.2 610.3c3-4.4 6.3-8.4 10.1-12.1 1.8-1.8-.9-4.7-2.7-2.9-4.1 4-7.6 8.3-10.8 12.9-1.5 2.1 1.9 4.2 3.4 2.1zM436.7 296.8c5.8 2.7 12.2 6 13.9 12.8 1.6 6.6-4.2 13.9-8 18.6-1.6 2 1.8 4 3.4 2.1 4.4-5.6 9.7-12.9 8.6-20.5-1.2-8.4-8.7-13.1-15.9-16.4-2.3-1-4.4 2.4-2 3.4z"/></svg>