<svg version="1.2" xmlns="http://www.w3.org/2000/svg" viewBox="0 0 1000 1000" width="1000" height="1000"><style>.a{fill:#e77243}.b{fill:#bc6348}.c{fill:#f28a55}.d{fill:#f2e7ad}.e{fill:#efd09a}.f{fill:#fff}.g{fill:#7adced}.h{fill:#ef7bbd}.i{fill:#ead11b}</style><path fill-rule="evenodd" class="a" d="m778.5 501.3c0 152-123.3 275.3-275.3 275.3-152 0-275.3-123.3-275.3-275.3 0-152 123.3-275.3 275.3-275.3 152 0 275.3 123.3 275.3 275.3zm-173.5 0c0-56.2-45.6-101.8-101.8-101.8-56.2 0-101.8 45.6-101.8 101.8 0 56.2 45.6 101.8 101.8 101.8 56.2 0 101.8-45.6 101.8-101.8z"/><path class="b" d="m675.9 287c52.8 50.1 85.7 121 85.7 199.5 0 152.1-123.2 275.3-275.3 275.3-65.4 0-125.5-22.8-172.7-60.9 49.3 46.9 116.1 75.7 189.6 75.7 152 0 275.3-123.3 275.3-275.3 0-86.6-40-163.9-102.6-214.3z"/><path class="c" d="m261.9 538.1c-0.8-166.9 91.4-280 285.6-276.9 66.2 1.1 103.9 18.5 146.4 45.4-50.1-51.6-120.1-83.6-197.6-83.6-152 0-275.3 123.2-275.3 275.3 0 98 51.3 184 128.4 232.8-48.1-49.6-87.1-118.5-87.5-193z"/><path class="b" d="m419.4 559.2c-10.3-16-17.5-37.7-17.5-58.2 0-56.2 44.5-101.2 100.7-101.2 34.7 0 67.8 19.7 86.1 46.2-1.4-19.8-16.3-35.5-32.5-46.7-24.2-16.8-48.2-20.2-76.3-15.3-43.1 7.5-99.9 55.2-92.1 119.8 2.8 23.6 12.7 42.3 31.6 55.4z"/><path fill-rule="evenodd" class="d" d="m717.9 622.5c-14.6 20.8-20.6 43.7-32.1 65.6-16.7 31.7-41.4 47.6-73.4 62-37.9 17.2-78.5 22-119.4 14.2-52.5-9.9-86.7-55.8-135.3-74.3-21.4-8.2-41.4-13.3-59.8-27.4-21.4-16.5-36.2-37.5-47.5-61.8-18.5-39.8-8.2-76.7-2.2-117.3 6-40.1-8.1-78.5 13.5-117.1 14.8-26.4 39-49 62.4-70.3 6.4-9.4 15.3-17.1 25.2-23.3q0.1 0 0.1-0.1c15-9.4 32.4-15.5 47.6-19.4 34.8-8.7 69.3-14.5 106.5-14.5 36.3 0 76.8 2.4 107.9 21.9 15.3 9.7 26.2 24.3 37.5 38.2 16 19.9 34.2 35.8 52.9 53 39.3 36.3 66.5 83.9 71.5 136.9 5.3 55.2-26.5 92.3-55.4 133.7zm-138.4-201.2c-16.2-15-29.7-33.8-51.7-36.9-11-1.6-53.2 9.4-64.3 10.5-31.7 3.2-56.4 33.6-66.5 49.6-13.9 22.1 2.5 53-1 77.2-8.5 57.8 10.6 48 36.1 68.4 72.5 57.9 122.1 20 163.2-19.1 15.8-15 7.6-37.1 18.7-56.9 27.7-49.6-5.8-66.4-34.5-92.8z"/><path class="e" d="m401.9 570.5c-7.3-7.3-10.3-19.1-5.9-48.8 3.5-24.2-12.9-55.1 1-77.2 10.1-16 34.8-46.4 66.5-49.6 11.1-1.1 53.3-12.1 64.3-10.5 5.1 0.7 9.7 2.3 14 4.4-7.8-6.4-16.3-11.4-26.7-12.9-11-1.6-53.2 9.5-64.3 10.6-31.6 3.1-56.4 33.6-66.4 49.5-14 22.1 2.4 53.1-1.1 77.2-6.3 43.4 2.8 48.7 18.6 57.3z"/><path class="e" d="m432.1 590.1c-4.5-3.6-8.7-6.2-12.7-8.5 6.7 5.4 13.2 9.9 19.5 13.7q-3.4-2.5-6.8-5.2z"/><path class="e" d="m345 681.5c-16.8-6.4-32.7-10.9-47.7-19.4q0.3 0.2 0.6 0.5c18.4 14.1 38.4 19.2 59.8 27.4 11.1 4.2 21.5 9.9 31.6 16.3-14-9.7-28.4-18.7-44.3-24.8z"/><path class="e" d="m773.3 488.8c-5-53-32.2-100.6-71.5-136.9-18.7-17.2-36.9-33.1-52.9-53-11.3-13.9-22.2-28.5-37.5-38.2q-2.5-1.6-5.1-3c11.6 9.3 20.6 21.3 29.9 32.8 16.1 19.8 34.3 35.8 52.9 53 39.4 36.2 66.6 83.8 71.6 136.8 5.2 55.3-26.5 92.4-55.5 133.8-14.5 20.8-20.5 43.7-32.1 65.6-16.7 31.6-41.3 47.5-73.4 62-37.9 17.2-78.5 21.9-119.4 14.2-18.9-3.6-35.4-11.9-51.2-21.9 19.6 13.6 39.8 25.7 63.9 30.3 40.9 7.8 81.5 3 119.4-14.2 32-14.4 56.7-30.3 73.4-62 11.5-21.9 17.5-44.8 32.1-65.6 28.9-41.4 60.7-78.5 55.4-133.7z"/><path class="f" d="m371.7 275.7c-7.3 1.4-26.6 13.8-29.5 15.8l0.8-0.2c-12.1 6.5-20.3 22-29.3 31.1-13.5 13.3-30.1 23.6-36.9 41.9-6 16-9 35.6-5.5 52.8 1.7 8.7 6.1 18.9 13.7 8.2 3.6-5.2 3-17.6 3.4-24.1 0.9-18.6 1.9-33 14.7-47.7 6.3-7.1 14.1-11.4 21.1-17.6 6.3-5.7 8.5-12.2 13-19 11.1-17.1 31.4-14.7 43.9-28.7 8.6-9.6 0.8-14.4-9.4-12.5z"/><path class="f" d="m641.7 469.3c-10 5.8 8.5 21.6-7.7 51.1-3.8 7.1-11.1 10.6-14.7 18-4 8.1-4.1 17.8-5.8 26.3-6.5 32.6-26 46.8-78.3 60.1-6.9 1.8-16-1.4-21.1 4.2-7.4 8.2-0.9 11.5 7.4 12.7 14.2 2 31.8-5 44.2-9.5 30.5-11 55.3-37.8 65.5-68.5 5.7-17.3 10.7-30 20.5-44.9 5.5-8.2 5.7-58.6-10-49.5z"/><path class="g" d="m442.9 345.9c0 6.3-5.2 11.5-11.6 11.5-6.4 0-11.6-5.2-11.6-11.5 0-6.4 5.2-11.6 11.6-11.6 6.4 0 11.6 5.2 11.6 11.6z"/><path class="g" d="m307.6 429.7c0 6.4-5.2 11.6-11.6 11.6-6.4 0-11.5-5.2-11.5-11.6 0-6.4 5.1-11.6 11.5-11.6 6.4 0 11.6 5.2 11.6 11.6z"/><path class="g" d="m384.3 508c0 6.4-5.2 11.6-11.5 11.6-6.4 0-11.6-5.2-11.6-11.6 0-6.4 5.2-11.5 11.6-11.5 6.3 0 11.5 5.1 11.5 11.5z"/><path class="g" d="m326.6 600.6c0 6.4-5.2 11.6-11.6 11.6-6.4 0-11.6-5.2-11.6-11.6 0-6.4 5.2-11.6 11.6-11.6 6.4 0 11.6 5.2 11.6 11.6z"/><path class="g" d="m501.4 634.6c0 6.4-5.2 11.6-11.6 11.6-6.4 0-11.5-5.2-11.5-11.6 0-6.4 5.1-11.6 11.5-11.6 6.4 0 11.6 5.2 11.6 11.6z"/><path class="g" d="m465.8 682.1c0 6.4-5.2 11.5-11.6 11.5-6.4 0-11.5-5.1-11.5-11.5 0-6.4 5.1-11.6 11.5-11.6 6.4 0 11.6 5.2 11.6 11.6z"/><path class="g" d="m690.5 647.3c0 6.3-5.2 11.5-11.6 11.5-6.4 0-11.6-5.2-11.6-11.5 0-6.4 5.2-11.6 11.6-11.6 6.4 0 11.6 5.2 11.6 11.6z"/><path class="g" d="m586 731.9c0 6.4-5.1 11.6-11.5 11.6-6.4 0-11.6-5.2-11.6-11.6 0-6.4 5.2-11.6 11.6-11.6 6.4 0 11.5 5.2 11.5 11.6z"/><path class="g" d="m657.2 485.9c0 6.4-5.1 11.5-11.5 11.5-6.4 0-11.6-5.1-11.6-11.5 0-6.4 5.2-11.6 11.6-11.6 6.4 0 11.5 5.2 11.5 11.6z"/><path class="g" d="m754.5 493c0 6.4-5.1 11.6-11.5 11.6-6.4 0-11.6-5.2-11.6-11.6 0-6.4 5.2-11.6 11.6-11.6 6.4 0 11.5 5.2 11.5 11.6z"/><path class="g" d="m702.3 540.5c0 6.3-5.1 11.5-11.5 11.5-6.4 0-11.6-5.2-11.6-11.5 0-6.4 5.2-11.6 11.6-11.6 6.4 0 11.5 5.2 11.5 11.6z"/><path class="g" d="m735.6 413.9c0 6.4-5.2 11.6-11.6 11.6-6.4 0-11.6-5.2-11.6-11.6 0-6.4 5.2-11.6 11.6-11.6 6.4 0 11.6 5.2 11.6 11.6z"/><path class="g" d="m624.8 387c0 6.4-5.2 11.6-11.6 11.6-6.4 0-11.5-5.2-11.5-11.6 0-6.4 5.1-11.6 11.5-11.6 6.4 0 11.6 5.2 11.6 11.6z"/><path class="g" d="m624 286.5c0 6.4-5.2 11.6-11.6 11.6-6.3 0-11.5-5.2-11.5-11.6 0-6.4 5.2-11.5 11.5-11.5 6.4 0 11.6 5.1 11.6 11.5z"/><path class="g" d="m461.1 270.7c0 6.4-5.2 11.6-11.6 11.6-6.4 0-11.6-5.2-11.6-11.6 0-6.4 5.2-11.6 11.6-11.6 6.4 0 11.6 5.2 11.6 11.6z"/><path class="g" d="m361.4 337.2c0 6.3-5.2 11.5-11.6 11.5-6.4 0-11.6-5.2-11.6-11.5 0-6.4 5.2-11.6 11.6-11.6 6.4 0 11.6 5.2 11.6 11.6z"/><path class="h" d="m512.5 298.4c0 6.4-5.2 11.6-11.6 11.6-6.4 0-11.6-5.2-11.6-11.6 0-6.4 5.2-11.6 11.6-11.6 6.4 0 11.6 5.2 11.6 11.6z"/><path class="h" d="m399.4 407.6c0 6.4-5.2 11.5-11.6 11.5-6.4 0-11.6-5.1-11.6-11.5 0-6.4 5.2-11.6 11.6-11.6 6.4 0 11.6 5.2 11.6 11.6z"/><path class="h" d="m281.5 491.4c0 6.4-5.2 11.6-11.6 11.6-6.4 0-11.6-5.2-11.6-11.6 0-6.4 5.2-11.6 11.6-11.6 6.4 0 11.6 5.2 11.6 11.6z"/><path class="h" d="m266.5 569.7c0 6.4-5.2 11.6-11.6 11.6-6.4 0-11.6-5.2-11.6-11.6 0-6.4 5.2-11.5 11.6-11.5 6.4 0 11.6 5.1 11.6 11.5z"/><path class="h" d="m332.9 538.9c0 6.4-5.2 11.5-11.6 11.5-6.4 0-11.5-5.1-11.5-11.5 0-6.4 5.1-11.6 11.5-11.6 6.4 0 11.6 5.2 11.6 11.6z"/><path class="h" d="m400.9 587.1c0 6.4-5.1 11.6-11.5 11.6-6.4 0-11.6-5.2-11.6-11.6 0-6.4 5.2-11.5 11.6-11.5 6.4 0 11.5 5.1 11.5 11.5z"/><path class="h" d="m379.6 648.8c0 6.4-5.2 11.6-11.6 11.6-6.4 0-11.6-5.2-11.6-11.6 0-6.4 5.2-11.5 11.6-11.5 6.4 0 11.6 5.1 11.6 11.5z"/><path class="h" d="m463.4 633.8c0 6.4-5.1 11.6-11.5 11.6-6.4 0-11.6-5.2-11.6-11.6 0-6.4 5.2-11.6 11.6-11.6 6.4 0 11.5 5.2 11.5 11.6z"/><path class="h" d="m492.7 737.4c0 6.4-5.2 11.6-11.6 11.6-6.4 0-11.5-5.2-11.5-11.6 0-6.4 5.1-11.5 11.5-11.5 6.4 0 11.6 5.1 11.6 11.5z"/><path class="h" d="m503 692.3c0 6.4-5.2 11.6-11.6 11.6-6.4 0-11.6-5.2-11.6-11.6 0-6.3 5.2-11.5 11.6-11.5 6.4 0 11.6 5.2 11.6 11.5z"/><path class="h" d="m552.8 706.6c0 6.4-5.2 11.6-11.5 11.6-6.4 0-11.6-5.2-11.6-11.6 0-6.4 5.2-11.6 11.6-11.6 6.3 0 11.5 5.2 11.5 11.6z"/><path class="h" d="m662 618.8c0 6.4-5.2 11.5-11.6 11.5-6.4 0-11.6-5.1-11.6-11.5 0-6.4 5.2-11.6 11.6-11.6 6.4 0 11.6 5.2 11.6 11.6z"/><path class="h" d="m657.2 425.8c0 6.3-5.1 11.5-11.5 11.5-6.4 0-11.6-5.2-11.6-11.5 0-6.4 5.2-11.6 11.6-11.6 6.4 0 11.5 5.2 11.5 11.6z"/><path class="h" d="m628.8 345.9c0 6.3-5.2 11.5-11.6 11.5-6.4 0-11.6-5.2-11.6-11.5 0-6.4 5.2-11.6 11.6-11.6 6.4 0 11.6 5.2 11.6 11.6z"/><path class="h" d="m594.7 311.1c0 6.3-5.1 11.5-11.5 11.5-6.4 0-11.6-5.2-11.6-11.5 0-6.4 5.2-11.6 11.6-11.6 6.4 0 11.5 5.2 11.5 11.6z"/><path class="h" d="m288.6 447.9c0 6.4-5.2 11.6-11.6 11.6-6.4 0-11.5-5.2-11.5-11.6 0-6.4 5.1-11.6 11.5-11.6 6.4 0 11.6 5.2 11.6 11.6z"/><path class="h" d="m378 382.2c0 6.4-5.2 11.6-11.6 11.6-6.4 0-11.5-5.2-11.5-11.6 0-6.3 5.1-11.5 11.5-11.5 6.4 0 11.6 5.2 11.6 11.5z"/><path class="h" d="m364.5 607.7c0 6.4-5.1 11.6-11.5 11.6-6.4 0-11.6-5.2-11.6-11.6 0-6.4 5.2-11.6 11.6-11.6 6.4 0 11.5 5.2 11.5 11.6z"/><path class="h" d="m397.8 682.9c0 6.3-5.2 11.5-11.6 11.5-6.4 0-11.6-5.2-11.6-11.5 0-6.4 5.2-11.6 11.6-11.6 6.4 0 11.6 5.2 11.6 11.6z"/><path class="h" d="m571 375.1c0 6.4-5.2 11.6-11.6 11.6-6.3 0-11.5-5.2-11.5-11.6 0-6.4 5.2-11.5 11.5-11.5 6.4 0 11.6 5.1 11.6 11.5z"/><path class="h" d="m726.9 584c0 6.4-5.2 11.5-11.6 11.5-6.4 0-11.6-5.1-11.6-11.5 0-6.4 5.2-11.6 11.6-11.6 6.4 0 11.6 5.2 11.6 11.6z"/><path class="h" d="m588.4 679.7c0 6.4-5.2 11.6-11.6 11.6-6.3 0-11.5-5.2-11.5-11.6 0-6.4 5.2-11.6 11.5-11.6 6.4 0 11.6 5.2 11.6 11.6z"/><path class="h" d="m613.7 610.1c0 6.4-5.1 11.5-11.5 11.5-6.4 0-11.6-5.1-11.6-11.5 0-6.4 5.2-11.6 11.6-11.6 6.4 0 11.5 5.2 11.5 11.6z"/><path class="h" d="m645.4 692.3c0 6.4-5.2 11.6-11.6 11.6-6.4 0-11.6-5.2-11.6-11.6 0-6.3 5.2-11.5 11.6-11.5 6.4 0 11.6 5.2 11.6 11.5z"/><path class="h" d="m697.6 595c0 6.4-5.2 11.6-11.6 11.6-6.4 0-11.6-5.2-11.6-11.6 0-6.3 5.2-11.5 11.6-11.5 6.4 0 11.6 5.2 11.6 11.5z"/><path class="h" d="m727.6 456.6c0 6.4-5.1 11.6-11.5 11.6-6.4 0-11.6-5.2-11.6-11.6 0-6.4 5.2-11.6 11.6-11.6 6.4 0 11.5 5.2 11.5 11.6z"/><path class="h" d="m681.8 403.6c0 6.4-5.2 11.6-11.6 11.6-6.4 0-11.6-5.2-11.6-11.6 0-6.4 5.2-11.6 11.6-11.6 6.4 0 11.6 5.2 11.6 11.6z"/><path class="h" d="m688.1 360.9c0 6.4-5.2 11.6-11.6 11.6-6.4 0-11.5-5.2-11.5-11.6 0-6.4 5.1-11.6 11.5-11.6 6.4 0 11.6 5.2 11.6 11.6z"/><path class="h" d="m525.1 357.7c0 6.4-5.1 11.6-11.5 11.6-6.4 0-11.6-5.2-11.6-11.6 0-6.4 5.2-11.5 11.6-11.5 6.4 0 11.5 5.1 11.5 11.5z"/><path class="h" d="m565.5 273.1c0 6.4-5.2 11.5-11.6 11.5-6.4 0-11.6-5.1-11.6-11.5 0-6.4 5.2-11.6 11.6-11.6 6.4 0 11.6 5.2 11.6 11.6z"/><path class="h" d="m397.8 288.1c0 6.4-5.2 11.6-11.6 11.6-6.4 0-11.6-5.2-11.6-11.6 0-6.4 5.2-11.6 11.6-11.6 6.4 0 11.6 5.2 11.6 11.6z"/><path class="h" d="m343.2 383.8c0 6.4-5.2 11.6-11.6 11.6-6.4 0-11.6-5.2-11.6-11.6 0-6.4 5.2-11.5 11.6-11.5 6.4 0 11.6 5.1 11.6 11.5z"/><path class="i" d="m593.2 350.6c0 6.4-5.2 11.6-11.6 11.6-6.4 0-11.6-5.2-11.6-11.6 0-6.4 5.2-11.6 11.6-11.6 6.4 0 11.6 5.2 11.6 11.6z"/><path class="i" d="m399.4 353.8c0 6.4-5.2 11.5-11.6 11.5-6.4 0-11.6-5.1-11.6-11.5 0-6.4 5.2-11.6 11.6-11.6 6.4 0 11.6 5.2 11.6 11.6z"/><path class="i" d="m432.6 303.9c0 6.4-5.2 11.6-11.6 11.6-6.4 0-11.6-5.2-11.6-11.6 0-6.4 5.2-11.5 11.6-11.5 6.4 0 11.6 5.1 11.6 11.5z"/><path class="i" d="m363 458.2c0 6.4-5.2 11.6-11.6 11.6-6.4 0-11.6-5.2-11.6-11.6 0-6.4 5.2-11.6 11.6-11.6 6.4 0 11.6 5.2 11.6 11.6z"/><path class="i" d="m291.8 532.5c0 6.4-5.2 11.6-11.6 11.6-6.4 0-11.6-5.2-11.6-11.6 0-6.3 5.2-11.5 11.6-11.5 6.4 0 11.6 5.2 11.6 11.5z"/><path class="i" d="m294.9 606.1c0 6.4-5.1 11.6-11.5 11.6-6.4 0-11.6-5.2-11.6-11.6 0-6.4 5.2-11.6 11.6-11.6 6.4 0 11.5 5.2 11.5 11.6z"/><path class="i" d="m337.7 639.3c0 6.4-5.2 11.6-11.6 11.6-6.4 0-11.6-5.2-11.6-11.6 0-6.3 5.2-11.5 11.6-11.5 6.4 0 11.6 5.2 11.6 11.5z"/><path class="i" d="m369.3 561c0 6.4-5.2 11.6-11.6 11.6-6.4 0-11.5-5.2-11.5-11.6 0-6.4 5.1-11.5 11.5-11.5 6.4 0 11.6 5.1 11.6 11.5z"/><path class="i" d="m421.5 633.8c0 6.4-5.2 11.6-11.6 11.6-6.4 0-11.5-5.2-11.5-11.6 0-6.4 5.1-11.6 11.5-11.6 6.4 0 11.6 5.2 11.6 11.6z"/><path class="i" d="m431.8 693.9c0 6.4-5.2 11.6-11.6 11.6-6.4 0-11.6-5.2-11.6-11.6 0-6.4 5.2-11.5 11.6-11.5 6.4 0 11.6 5.1 11.6 11.5z"/><path class="i" d="m529.1 671c0 6.4-5.2 11.6-11.6 11.6-6.4 0-11.5-5.2-11.5-11.6 0-6.4 5.1-11.6 11.5-11.6 6.4 0 11.6 5.2 11.6 11.6z"/><path class="i" d="m537 736.6c0 6.4-5.2 11.6-11.6 11.6-6.4 0-11.5-5.2-11.5-11.6 0-6.3 5.1-11.5 11.5-11.5 6.4 0 11.6 5.2 11.6 11.5z"/><path class="i" d="m582.1 636.2c0 6.4-5.2 11.5-11.6 11.5-6.4 0-11.5-5.1-11.5-11.5 0-6.4 5.1-11.6 11.5-11.6 6.4 0 11.6 5.2 11.6 11.6z"/><path class="i" d="m637.5 645.7c0 6.4-5.2 11.5-11.6 11.5-6.4 0-11.6-5.1-11.6-11.5 0-6.4 5.2-11.6 11.6-11.6 6.4 0 11.6 5.2 11.6 11.6z"/><path class="i" d="m664.4 582.4c0 6.4-5.2 11.6-11.6 11.6-6.4 0-11.6-5.2-11.6-11.6 0-6.4 5.2-11.6 11.6-11.6 6.4 0 11.6 5.2 11.6 11.6z"/><path class="i" d="m658.8 539.7c0 6.4-5.2 11.5-11.5 11.5-6.4 0-11.6-5.1-11.6-11.5 0-6.4 5.2-11.6 11.6-11.6 6.3 0 11.5 5.2 11.5 11.6z"/><path class="i" d="m708.7 497.7c0 6.4-5.2 11.6-11.6 11.6-6.4 0-11.6-5.2-11.6-11.6 0-6.3 5.2-11.5 11.6-11.5 6.4 0 11.6 5.2 11.6 11.5z"/><path class="i" d="m744.3 550c0 6.3-5.2 11.5-11.6 11.5-6.4 0-11.6-5.2-11.6-11.5 0-6.4 5.2-11.6 11.6-11.6 6.4 0 11.6 5.2 11.6 11.6z"/><path class="i" d="m681 446.3c0 6.4-5.2 11.6-11.6 11.6-6.4 0-11.6-5.2-11.6-11.6 0-6.4 5.2-11.5 11.6-11.5 6.4 0 11.6 5.1 11.6 11.5z"/><path class="i" d="m624.8 425.8c0 6.3-5.2 11.5-11.6 11.5-6.4 0-11.5-5.2-11.5-11.5 0-6.4 5.1-11.6 11.5-11.6 6.4 0 11.6 5.2 11.6 11.6z"/><path class="i" d="m662.8 357.7c0 6.4-5.2 11.6-11.6 11.6-6.4 0-11.6-5.2-11.6-11.6 0-6.4 5.2-11.5 11.6-11.5 6.4 0 11.6 5.1 11.6 11.5z"/><path class="i" d="m634.3 312.6c0 6.4-5.2 11.6-11.6 11.6-6.4 0-11.5-5.2-11.5-11.6 0-6.4 5.1-11.5 11.5-11.5 6.4 0 11.6 5.1 11.6 11.5z"/><path class="i" d="m556.8 315c0 6.4-5.2 11.6-11.6 11.6-6.4 0-11.6-5.2-11.6-11.6 0-6.4 5.2-11.6 11.6-11.6 6.4 0 11.6 5.2 11.6 11.6z"/><path class="i" d="m479.3 357.7c0 6.4-5.2 11.6-11.6 11.6-6.4 0-11.6-5.2-11.6-11.6 0-6.4 5.2-11.5 11.6-11.5 6.4 0 11.6 5.1 11.6 11.5z"/><path class="i" d="m509.3 260.4c0 6.4-5.2 11.6-11.6 11.6-6.3 0-11.5-5.2-11.5-11.6 0-6.4 5.2-11.5 11.5-11.5 6.4 0 11.6 5.1 11.6 11.5z"/><path class="i" d="m321 477.2c0 6.4-5.1 11.5-11.5 11.5-6.4 0-11.6-5.1-11.6-11.5 0-6.4 5.2-11.6 11.6-11.6 6.4 0 11.5 5.2 11.5 11.6z"/><path class="i" d="m285.4 389.4c0 6.4-5.1 11.5-11.5 11.5-6.4 0-11.6-5.1-11.6-11.5 0-6.4 5.2-11.6 11.6-11.6 6.4 0 11.5 5.2 11.5 11.6z"/><path class="i" d="m348.7 425.8c0 6.3-5.2 11.5-11.5 11.5-6.4 0-11.6-5.2-11.6-11.5 0-6.4 5.2-11.6 11.6-11.6 6.3 0 11.5 5.2 11.5 11.6z"/></svg>