<svg version="1.2" xmlns="http://www.w3.org/2000/svg" width="1000" height="1000"><style>.b{fill:#bc6348}.e{fill:#491e1a}.f{fill:#9b3f38}.g{fill:#f9a19d}.h{fill:#fff}</style><path fill-rule="evenodd" d="M778.1 501.3c0 152-123.2 275.3-275.3 275.3-152 0-275.3-123.3-275.3-275.3S350.8 226 502.8 226c152.1 0 275.3 123.3 275.3 275.3zm-173.5 0c0-56.2-45.6-101.8-101.8-101.8-56.2 0-101.8 45.6-101.8 101.8 0 56.2 45.6 101.8 101.8 101.8 56.2 0 101.8-45.6 101.8-101.8z" style="fill:#e77243"/><path class="b" d="M675.6 287c52.7 50.1 85.6 121 85.6 199.5 0 152.1-123.2 275.3-275.2 275.3-65.5 0-125.5-22.8-172.8-60.9 49.4 46.9 116.1 75.7 189.6 75.7 152.1 0 275.3-123.3 275.3-275.3 0-86.6-40-163.9-102.5-214.3z"/><path d="M261.5 538.1c-.8-166.9 91.5-280 285.6-276.9 66.2 1.1 103.9 18.5 146.4 45.4-50-51.6-120-83.6-197.5-83.6-152.1 0-275.3 123.2-275.3 275.3 0 98 51.2 184 128.3 232.8-48.1-49.6-87.1-118.5-87.5-193z" style="fill:#f28a55"/><path class="b" d="M419.1 559.2c-10.4-16-17.6-37.7-17.6-58.2 0-56.2 44.5-101.2 100.7-101.2 34.7 0 67.8 19.7 86.2 46.2-1.4-19.8-16.3-35.5-32.5-46.7-24.2-16.8-48.3-20.2-76.3-15.3-43.1 7.5-100 55.2-92.2 119.8 2.9 23.6 12.8 42.3 31.7 55.4z"/><path fill-rule="evenodd" d="M716.7 613.8c-14.6 20.8-20.6 43.7-32.2 65.7-16.6 31.6-41.3 47.5-73.3 61.9-37.9 17.2-78.5 22-119.4 14.2-52.5-9.9-86.7-55.8-135.3-74.3-21.4-8.2-41.4-13.3-59.8-27.4-21.4-16.5-36.2-37.5-47.5-61.8-18.5-39.8-8.2-76.7-2.2-117.3 6-40.1-8.2-78.5 13.5-117.1 14.8-26.4 39-49 62.4-70.3 6.4-9.4 15.2-17.1 25.2-23.3q.1 0 .1-.1c15-9.4 32.3-15.5 47.6-19.4 34.8-8.7 69.2-14.5 106.5-14.5 36.3 0 76.8 2.4 107.8 21.9 15.4 9.7 26.3 24.3 37.5 38.2 16.1 19.9 34.3 35.8 53 53 39.3 36.3 66.5 83.9 71.5 136.9 5.2 55.2-26.5 92.3-55.4 133.7zM578.3 412.6c-16.2-15-29.7-33.8-51.7-36.9-11.1-1.6-53.3 9.4-64.4 10.5-31.6 3.2-56.4 33.6-66.4 49.6-13.9 22.1 2.5 53-1.1 77.2-8.4 57.8 10.7 48 36.2 68.4 72.5 57.9 122.1 20 163.2-19.1 15.8-15 7.6-37.1 18.7-56.9 27.7-49.6-5.9-66.4-34.5-92.8z" style="fill:#723027"/><path class="e" d="M400.7 561.8c-7.4-7.3-10.3-19.1-6-48.8 3.6-24.2-12.8-55.1 1.1-77.2 10-16 34.8-46.4 66.4-49.6 11.1-1.1 53.3-12.1 64.4-10.5 5.1.7 9.7 2.3 14 4.4-7.8-6.4-16.3-11.4-26.7-12.9-11-1.6-53.2 9.5-64.3 10.6-31.7 3.1-56.4 33.6-66.5 49.5-13.9 22.1 2.5 53.1-1 77.2-6.3 43.4 2.8 48.7 18.6 57.3zM430.9 581.4c-4.5-3.6-8.7-6.2-12.7-8.5 6.7 5.4 13.2 9.9 19.5 13.7q-3.4-2.5-6.8-5.2zM343.8 672.8c-16.8-6.4-32.7-10.9-47.7-19.4q.3.2.6.5c18.4 14.1 38.4 19.2 59.8 27.4 11.1 4.2 21.5 9.9 31.5 16.3-13.9-9.7-28.3-18.7-44.2-24.8zM772.1 480.1c-5-53-32.2-100.6-71.5-136.9-18.7-17.2-36.9-33.1-53-53-11.2-13.9-22.1-28.5-37.5-38.2q-2.4-1.6-5-3c11.5 9.3 20.6 21.3 29.9 32.8 16.1 19.8 34.2 35.8 52.9 53 39.4 36.2 66.5 83.8 71.6 136.8 5.2 55.3-26.5 92.4-55.5 133.8-14.5 20.8-20.5 43.7-32.1 65.6-16.7 31.6-41.3 47.5-73.4 62-37.9 17.2-78.5 21.9-119.4 14.2-18.9-3.6-35.5-11.9-51.2-21.9 19.6 13.6 39.8 25.7 63.9 30.3 40.9 7.8 81.5 3 119.4-14.2 32-14.4 56.7-30.3 73.3-61.9 11.6-22 17.6-44.9 32.2-65.7 28.9-41.4 60.6-78.5 55.4-133.7z"/><path class="f" d="M370.5 267c-7.3 1.4-26.6 13.8-29.6 15.8l.9-.2c-12.2 6.5-20.3 22-29.4 31.1-13.4 13.3-30 23.6-36.8 41.9-6 16-9 35.6-5.6 52.8 1.8 8.7 6.2 18.9 13.8 8.2 3.6-5.2 3-17.6 3.4-24.1.9-18.6 1.9-33 14.7-47.7 6.3-7.1 14.1-11.4 21.1-17.6 6.3-5.7 8.5-12.2 12.9-19 11.1-17.1 31.5-14.7 44-28.7 8.6-9.6.8-14.4-9.4-12.5zM640.5 460.6c-10 5.8 8.4 21.6-7.7 51.1-3.8 7.1-11.2 10.6-14.7 18-4 8.1-4.2 17.8-5.8 26.3-6.5 32.6-26 46.8-78.3 60.1-6.9 1.8-16-1.4-21.1 4.2-7.4 8.2-.9 11.5 7.4 12.7 14.2 2 31.8-5 44.2-9.5 30.5-11 55.2-37.8 65.5-68.5 5.7-17.3 10.7-30 20.5-44.9 5.5-8.2 5.7-58.6-10-49.5z"/><path class="g" d="M548.9 235.7c-10.7-4.8-26.2 1.6-35.7 7.1-11.8 6.8-22 17-32.3 25.7-10.9 9.3-127.9 139-147.5 157.9-18.1 17.3-34.9 36.6-51.2 55.5-8.1 9.5-15 19.7-21.8 30.1-2.5 3.9-12.4 22.1-17.4 23.7-8.7 2.7.4-24.7 2.8-29.3 12.7-24.1 21.3-43.1 38.4-64.8 16.5-21 35.6-40.2 54.2-60.1 19.2-20.6 40-40.4 60.9-60.2 15.3-14.5 43.1-30.6 49.6-51.4 3.7-11.7 3.2-20.2-10.5-24.1-12.6-3.7-18.1 0-28.9 6.7-13.6 8.5-148.1 151.4-155.6 160.6-2.8 3.5-7.6 6.7-10.4 10.4l-.1-.1v.2q-.8 1.2-1.4 2.4c-2.6 5.9 0 9.5 7 6.9l-.6-1c6.5-1.1 12.4-15.7 16.8-20 17.9-17.3 41.2-35.3 56.3-55 24.7-32.1 52.1-60.2 81.7-88 6.2-5.7 27-25.6 34.2-11.7 6.4 12.3-20.6 32.9-28 40.4-39.3 39.6-80.1 78.7-115.6 121.8-25.6 31.2-53.1 67-63 106.8-1 3.9-5.3 16.4-1.9 20 4.2 4.4 14.6-1.5 18.3-4.4 7.7-6.1 55.5-86 179.1-195.9 16.4-14.6 25.4-36.7 40.6-52.6 16-16.9 37.3-32.3 56.6-45 11.5-7.6 28.2-7.9 22.3 9.7-5.1 15.5-23.3 29.9-34.8 41-26.2 25.3-51 53.8-66.4 86.6-3.8 8.1-16.2 25.7-10.7 34.8 8.5 14.3 14.8-14.4 17-20 37.7-94.5 88.9-105.7 102.8-134.3 4.8-9.8 8.4-24.5-4.8-30.4zM388.4 530.3c-18.5 20.3-34 40.6-57.2 55.4-7.9 5.1-57.1 51.2-63.3 30.7-3.3-11 15.1-27.4 21.4-34.6 9.6-11 17.9-22.7 27.1-34.2 15.4-19.4 35.7-43.2 56.7-56.8 10-6.5 21.9-8.7 32.3-14.6 3.3-1.9 12.1-6.9 6.6-10.9-.6-.4-1.2-.6-1.9-.6-9.5 7.3-25.8 11.2-36.8 17.4-15.2 8.6-28.5 21.9-39.7 35.4-12.7 15.4-26.1 30.7-38.7 45.9-9.6 11.6-22.6 20.3-29.5 33.8-4.3 8.3-12.3 24.9-3.8 32.8 11.3 10.6 27.1-.8 36.4-7.9 17.7-13.4 32.8-30.8 49.8-45.3 12.4-10.5 25.7-20.3 37.8-31 5.9-5.1 26.5-16.2 26.9-25.1.9-16.4-20.5 5.7-24.1 9.6z"/><path class="g" d="M409.8 464.7h.3l.2-.2zM479.4 405.7l1.6-.5q-.9-.1-1.5-.3c-.1.3.2.5-.1.8z"/><path class="g" d="M619.2 267.6c-18.5 3.6-32.3 20.2-44.3 33.7-17.2 19.3-32.1 40-52.8 55.9-10.3 7.9-21 14.9-30.7 23.9-2.6 2.4-22.1 21.3-11.9 23.8 0-.1.1-.2.4-.3 3.4 1.9 4.7-2 6.3-4.3 8.9-13.3 20-20.6 32.7-30.1 14.9-11.2 26.7-25.3 38.5-39.4 13.9-16.5 28.9-33.9 46.1-46.8 5-3.7 18.2-11 18.9.4.3 6.6-5 16.8-8.4 22.7-4.4 7.7-11.1 14.3-16.1 21.6-5.2 7.7-10.5 15-16.7 21.8-15 16.2-28.3 34-44.2 49.6-5.2 5-11.4 19.3 1.4 12.9 8.4-4.3 16.2-13.8 22.2-21 8.1-9.7 14.4-21 22.2-31.2 10.7-14.1 20.8-28.4 30.6-43.2 5.6-8.5 35.1-55.7 5.8-50zM440.4 589.8c-12.2 10.7-22.8 23.6-32.7 36.2-16.1 20.6-34.1 39.1-55.5 53.8-4 2.8-15.9 14.7-19.8 8.1-3.6-6 7.2-20.6 10.4-25.4 16.2-23.9 34.2-46.7 52.6-69.1 6.1-7.3 12.3-14.5 19.2-20.9 3-2.9 14.9-14.3 5.2-17v.5c-7.2-4.6-22.2 24.6-25.3 29.1-10.9 15.6-26.3 28.6-37 44.7-6.9 10.3-14.6 19.3-22.1 28.6-5.8 7.3-10.6 15-12.1 24.2-1.4 8.9 2.4 19.1 13.1 17.9 11.4-1.2 24.5-12.9 33.5-19.2 7.7-5.5 14.5-12.5 19.9-20.2 8.2-11.8 18.5-22.3 28.1-33 10.6-11.8 24.6-21.2 34-33.7 8.6-11.6-4.3-11-11.5-4.6zM690.9 324.1c-9.3 3.6-18.6 13.6-25.8 20.3-4.9 4.6-10 9.2-14.8 13.8-6.6 6.3-14.7 9.9-22.3 14.8-14.9 9.7-28.4 22.1-42.6 32.7-3.1 2.4-26.6 17.9-20 23.4.7 6.9 14.2-.9 17-3.2 5.9-4.9 11.1-10.7 16.6-16 12.5-11.9 25.3-23.7 39.3-33.7 7.3-5.3 14.7-10.2 22-16 7.7-6 14.4-14.6 22.8-19.7 12.1-7.5 7.3 5.3 4 11.4-4.5 8.4-10.6 14.7-17.3 21.1-8.1 7.6-14.4 16.3-21.2 24.8-7.8 9.8-16.7 18.2-25.2 27.5-7.1 7.6-14.3 15.5-21.8 22.6-3.3 3.2-20.3 14.1-8.7 18.3 6.1 2.3 16.4-8.8 20.5-12.5 9.6-8.7 19.7-18 28.3-27.8 18-20.4 33.7-43.5 49.8-65.1 5.8-7.7 10.9-17.4 13.6-26.8 3-10.5-5.3-13.4-14.2-9.9zM487 606.4l-3.7 2.1c.9-.3 2.3-1.1 3.7-2.1zM604.9 688.6c-7.4 8.4-13.8 16.5-21.9 24.1-5.3 5-15.5 20.6-22.9 19.4-5.9-13.1 2.3-23.7 9.1-34.9 9-14.8 17.7-28.8 27.7-42.8 25-35 51.8-69 79.9-101 20.3-23.1 38.9-49.4 56-74.7 9.7-14.4 26.7-60.6-3.3-64-25.4-2.9-49.3 28.5-64.4 44.9-20.8 22.5-26.7 51.4-42 77.7-9 15.6-23.2 31.3-34.5 45.3-11.2 13.8-23 26.8-34.9 39.9-14.1 15.5-32.9 26.5-47.4 41.8-9.1 9.6-19.2 18-29.3 26.7-8.8 7.6-18.9 18.8-29.1 24.3-4.1 2.2-11.6 3.8-14.8-1.2-2.8-4.4 2.1-12.7 4.3-17.1 12.5-25.7 30.8-48.8 48.8-70.7 3.8-4.6 18.5-16.1 16.5-22.5-2.5-7.7-10.2-1.1-15.7 2.6l2.2-1.2c-5.6 4-11.1 11.2-15.3 15.5-7.7 8-14 15.9-19.4 25.2-9.5 15.9-19 31.6-27.6 48.2-5.3 10.2-19.5 32.1 0 35.8 22.7 4.3 47.6-22.9 62-36.8 15.9-15.3 30.8-30.6 47.8-44.8 21.7-17.9 45.6-40.8 61.9-63.8 9.2-12.9 19.3-24.8 28.1-37.5 9.7-14 21-49.3 30.4-63.5 11.7-17.6 49.4-50.3 59.2-57.1 14.8-10.4 23.9 2.5 20.7 14.4-4.4 16.7-57.4 94.1-75.5 114.2-24.2 27-46.3 55.6-68.2 84.4-7.6 10.1-76.6 99.3-50.4 110.9 20.9 9.3 49.5-29.2 60.3-41.4 24.6-27.8 51-55.7 80.6-77.9 10.1-7.6 30.7-26.7 45-15.7 4.1 3.2 2.9 14.1 8.5 13.2 5.6-.8 6.4-11.2 5.2-15.2-15.8-53.3-123.3 58.9-137.6 75.3z"/><path class="h" d="M245.7 428c15.5-17.7 33.2-33.4 49.1-50.8 13.6-15 30.3-27.3 40.4-45.1.7-1.1-1-2.1-1.7-1-10 17.6-26.4 30.1-40.1 44.7-16.1 17.2-33.6 33.1-49.1 50.8-.8 1 .6 2.4 1.4 1.4zM420.1 251.1c10.2-3.1 23.4-3.4 23.1 10.5-.2 10.6-7.8 21.1-16 27.2-1 .8 0 2.5 1 1.7 9.5-7.1 17.5-18.9 17-31.2-.6-14-15.9-13-25.6-10.1-1.3.3-.7 2.3.5 1.9zM237.1 541.8c-13.8-1.4 3.9-29.7 7.2-35.7 4.6-8.4 7.6-17.7 11.8-26.4 5.4-11.1 11.6-21.7 18.2-32.1.7-1.1-1-2.1-1.7-1-13.8 21.4-22.8 44.7-34.6 67-3.6 6.8-15.9 28.7-.9 30.2 1.3.2 1.2-1.8 0-2zM399.3 364.6c6.8-9.9 14.8-18.8 22.9-27.6 6.6-7.3 12.7-14.9 19.7-21.7 12.3-11.9 27.6-22.7 34.9-38.6.6-1.1-1.1-2.1-1.7-1-7.8 17-24.8 28.5-37.8 41.3-7.2 7.1-13.5 15.2-20.3 22.8-6.9 7.6-13.6 15.3-19.4 23.8-.7 1 1 2 1.7 1zM505.2 255.6c6.7-7 15.3-12.5 24.6-15.4 13-4 22.1 5.8 18.5 18.6-5.2 18.7-24.6 33.4-38.2 46-.9.9.5 2.3 1.4 1.4 9.6-8.9 19.2-17.6 27.5-27.7 5.9-7.3 14.1-18.2 12.2-28.3-4.9-25.7-37.1-6.8-47.4 4-.9.9.5 2.3 1.4 1.4zM438.8 419.6c1.3 0 1.3-2 0-2s-1.3 2 0 2z"/><path class="h" d="M439.8 418.6c-.3-15.5 5.9-29.7 13.3-43 .6-1.1-1.1-2.1-1.7-1-7.5 13.6-13.9 28.2-13.6 44 .1 1.3 2 1.3 2 0zM483.3 399.1c7.9-19.9 32-24.5 44.2-40.9.7-1-1-2-1.7-1-12.4 16.7-36.3 21-44.4 41.4-.5 1.2 1.4 1.7 1.9.5zM597.7 284.1c3.7-4.3 10-6.6 15.2-8.2 5.4-1.7 15.9-3.4 11 5.4-.7 1.1 1 2.1 1.7 1 3.6-6.5.8-10.3-6.4-9.7-7.5.6-17.9 4.2-22.9 10.1-.8.9.6 2.3 1.4 1.4zM534.6 412c8.2-13.8 22.1-23.1 33.1-34.6.8-.9-.6-2.3-1.4-1.4-11.1 11.7-25.1 21-33.4 35-.7 1.1 1 2.1 1.7 1zM568.7 426.8c2.5-7.8 12.5-13.9 18.7-18.4 6.9-5 14.1-9.5 21.2-14.2 1.1-.7.1-2.4-1-1.7-8.2 5.4-16.5 10.7-24.4 16.6-6 4.4-14 9.8-16.4 17.2-.4 1.2 1.5 1.7 1.9.5zM664.8 350.7c8.7-5.7 14.2-16 24.1-19.9 2.4-.9 5.6-.9 7.9.2 2.7 1.4 1.9 5.2 1.2 7.5-1.2 4.7-4.4 9.3-7.5 13-.9.9.5 2.4 1.4 1.4 4-4.7 14.5-19.4 5.1-24-12.6-6-24.7 14.6-33.2 20.1-1.1.6-.1 2.4 1 1.7zM593.9 462.6c4.4-9.8 15.5-14 23.4-20.5 10.8-9 19.2-20.6 27.9-31.5.8-1-.6-2.4-1.4-1.4-8.8 11-17.3 22.1-27.9 31.5-8 6.9-19.2 10.7-23.7 20.9-.5 1.2 1.2 2.2 1.7 1zM268 630.1c-13.2-27.5 11.6-47.4 28.3-66 .9-.9-.5-2.3-1.4-1.4-17.5 19.5-42.3 39.9-28.6 68.4.5 1.2 2.3.2 1.7-1zM359.6 496.9c12.7-15 34.7-14.3 49.1-26.9.9-.9-.5-2.3-1.4-1.4-14.4 12.6-36.3 11.8-49.1 26.9-.8.9.6 2.3 1.4 1.4zM385.9 542.5c4.8-7.8 11.6-13.8 19.4-18.6 1.1-.7.1-2.4-1-1.7-8.1 4.9-15.1 11.2-20.1 19.3-.7 1.1 1 2.1 1.7 1zM408 575c2.8-6.1 7.2-11.3 11.1-16.6.7-1.1-1-2.1-1.7-1-3.9 5.4-8.3 10.5-11.1 16.6-.5 1.1 1.2 2.1 1.7 1zM335.3 663.2c-6.1 7.3-14.5 17.6-10 27.8 4.1 9.1 12.5 9.4 19.3 2.8.9-.9-.5-2.3-1.4-1.4-3.3 3.3-7.2 5.7-11.8 3.3-3.7-2-5.1-7-5.3-10.8-.4-7.5 6.2-15 10.6-20.3.8-1-.6-2.4-1.4-1.4zM354.9 687.5c13.8-11.6 25.9-24.6 37.1-38.8.8-.9-.6-2.4-1.4-1.4-11.2 14.2-23.3 27.2-37.1 38.8-1 .8.4 2.2 1.4 1.4zM429.3 609.5c1.3 0 1.3-2 0-2s-1.3 2 0 2z"/><path class="h" d="M430.2 609c5.8-8.2 13.4-14.8 21.8-20.2 1-.7 0-2.4-1-1.7-8.7 5.6-16.5 12.5-22.5 20.9-.8 1 .9 2 1.7 1zM475.1 628.2c6.7-7.5 13.8-14.7 21.4-21.4.9-.8-.5-2.2-1.4-1.4-7.6 6.7-14.7 13.9-21.4 21.4-.8.9.6 2.3 1.4 1.4zM426.2 705.1c-8.3 8.4-6.1 25.1 8.6 22.9 17.4-2.6 31.9-19.5 45.6-29.3 1.1-.7.1-2.4-1-1.7-9.6 6.9-18.5 14.9-28.4 21.5-5.2 3.5-11.3 7.3-17.7 7.7-12.4.6-12.2-13.2-5.7-19.7.9-.9-.5-2.3-1.4-1.4zM659.4 472.3c10.2-11.6 21.9-21.9 32.5-33.2.8-.9-.6-2.3-1.4-1.4-10.6 11.3-22.3 21.6-32.5 33.2-.8 1 .6 2.4 1.4 1.4zM708.3 427.4c9.4-7.2 29.8-11.4 30.7 5.7.5 8.8-5.3 17.8-9.1 25.4-.6 1.1 1.1 2.1 1.7 1 4.7-9.4 12.4-21.5 8.2-32.4-5.3-13.7-24.2-7.8-32.5-1.4-1 .8 0 2.5 1 1.7zM549.3 744.5c-16-9.5 9.8-38 14.6-48.5.5-1.1-1.2-2.2-1.7-1-5.2 11.4-32 40.4-13.9 51.2 1.1.7 2.1-1.1 1-1.7zM570.2 683.4c5.2-7.8 11-15.1 15.8-23 .7-1.1-1-2.1-1.7-1-4.8 7.9-10.6 15.2-15.8 23-.7 1 1 2 1.7 1zM684.7 625c8.1-9.9 54.2-30.8 51.4-5.4-.2 1.2 1.8 1.2 1.9 0 3.2-28.6-45.9-6.8-54.7 4-.8 1 .6 2.4 1.4 1.4z"/></svg>