<svg version="1.2" xmlns="http://www.w3.org/2000/svg" width="1000" height="1000"><style>.b{fill:#bc6348}.e{fill:#82d8ce}.f{fill:#fff}.g{fill:#ef7bbd}.h{fill:#723027}</style><path fill-rule="evenodd" d="M778.8 501.3c0 152-123.3 275.3-275.3 275.3-152.1 0-275.3-123.3-275.3-275.3S351.4 226 503.5 226c152 0 275.3 123.3 275.3 275.3zm-173.5 0c0-56.2-45.6-101.8-101.8-101.8-56.2 0-101.8 45.6-101.8 101.8 0 56.2 45.6 101.8 101.8 101.8 56.2 0 101.8-45.6 101.8-101.8z" style="fill:#e77243"/><path class="b" d="M676.2 287c52.8 50.1 85.7 121 85.7 199.5 0 152.1-123.3 275.3-275.3 275.3-65.4 0-125.5-22.8-172.7-60.9 49.3 46.9 116.1 75.7 189.6 75.7 152 0 275.3-123.3 275.3-275.3 0-86.6-40.1-163.9-102.6-214.3z"/><path d="M262.2 538.1c-.8-166.9 91.4-280 285.5-276.9 66.2 1.1 103.9 18.5 146.5 45.4C644.1 255 574.1 223 496.6 223c-152 0-275.3 123.2-275.3 275.3 0 98 51.2 184 128.4 232.8-48.1-49.6-87.2-118.5-87.5-193z" style="fill:#f28a55"/><path class="b" d="M419.7 559.2c-10.4-16-17.6-37.7-17.6-58.2 0-56.2 44.6-101.2 100.8-101.2 34.7 0 67.7 19.7 86.1 46.2-1.4-19.8-16.3-35.5-32.5-46.7-24.2-16.8-48.3-20.2-76.3-15.3-43.1 7.5-99.9 55.2-92.1 119.8 2.8 23.6 12.7 42.3 31.6 55.4z"/><path fill-rule="evenodd" d="M758.5 565.8c-1.7 19.2-10.4 44.3-19.8 61.4-14.5 26.5-42.7 40.4-67 56.9-21.9 15-32.4 39.4-53.2 54.8-43.1 31.9-94.6 18.1-139.6-2.3-23.5-10.6-47.2-21.6-72.9-25.9-24.2-3.9-48-5.2-70.5-15.8-45.3-21.2-70.1-54.6-65.3-104.6 1.8-19.3 6.9-36.3 3.1-55.9-5.1-25.5-20.4-45.8-24-71.5-10-73 23.2-123.7 59.9-150.9 29.1-21.6 68.9-26.7 103.3-35 22.7-5.5 46-10.5 67.6-19.8 21.5-9.3 42.3-18.5 66.3-17.1 19.2 1.1 39.8 3.4 56 14.8 17.8 12.4 29 30.9 44.3 45.3C681 332.7 726 356 741.6 403.5c11.3 34.6-8.3 69.5 2.9 105.6 5.9 19 15.7 36.2 14 56.7zm-155.3-153c-25.9-23.4-27.9-55.2-62.5-61.7-38.4-7.2-113.9-11.1-163 64.1-19.3 29.6-3.9 54.6-18 106.5-5.1 19-3 53.4 17.2 58 17.4 4 36.9 15.1 45.1 30.1 16.9 30.6 40 58.9 79.1 44.8 17.4-6.3 32.1-18 48.5-25.6 16-7.3 32-12.9 46.4-24.8 61.7-50.6 72.8-132.1 7.2-191.4z" style="fill:#92f4ea"/><path class="e" d="M404.6 597.9c10.2 18.6 22.7 36.3 39.7 44.2-9-8.9-16.5-20.4-23.1-32.3-5-9.2-14.4-17-24.9-22.5 3.4 3.2 6.2 6.8 8.3 10.6zM359.5 567.9q1.5.3 2.9.7c-7.1-12.9-7-33.6-3.5-46.9 14.1-51.9-1.3-76.9 18-106.5 49.1-75.2 124.6-71.3 163-64.1 3.8.7 7.3 1.8 10.4 3.1-6.6-7.2-14.8-12.6-27-15-38.4-7.2-113.9-11-163 64.1-19.4 29.7-3.9 54.6-18 106.5-5.1 19.1-3 53.5 17.2 58.1z"/><path class="e" d="M744.5 509.1c-11.2-36.1 8.4-71-2.9-105.6C726 356 681 332.7 646.7 300.2c-15.3-14.4-26.5-32.9-44.3-45.3-2.4-1.7-4.8-3.1-7.3-4.4 12.8 11.6 22.6 26.1 35 37.8 34.3 32.5 79.3 55.8 94.9 103.4 11.3 34.5-8.3 69.5 2.9 105.5 5.9 19.1 15.7 36.2 14 56.7-1.7 19.3-10.4 44.3-19.8 61.4-14.6 26.5-42.7 40.4-67 57-21.9 15-32.4 39.3-53.2 54.8-43.1 31.8-94.6 18-139.6-2.3-23.5-10.6-47.2-21.7-73-25.9-24.1-4-47.9-5.3-70.4-15.8q-8.4-3.9-15.9-8.4c9.2 7.7 20.1 14.4 32.5 20.2 22.5 10.6 46.3 11.9 70.5 15.8 25.7 4.3 49.4 15.3 72.9 25.9 45 20.4 96.5 34.2 139.6 2.3 20.8-15.4 31.3-39.8 53.2-54.8 24.3-16.5 52.5-30.4 67-56.9 9.4-17.1 18.1-42.2 19.8-61.4 1.7-20.5-8.1-37.7-14-56.7z"/><path fill-rule="evenodd" class="f" d="M337.6 325.2c-6.7 9.2-18.6 14.2-25.3 23.5-8.5 11.8-12.6 27.5-16.6 41.2-4.3 14.2-3.3 27.4-1.9 41.9.9 9.1 7.6 31.5-.5 39-13.1 11.8-26.3-16.9-23.9-64.3.7-13.8 16.6-49.8 18.9-53 16.6-29.3 36.4-37.9 42.7-38.8 8.9-1.2 11.3 4 6.6 10.5zm-28.7 3.8-2.6 4.7q1.4-2.4 2.6-4.7zM420.6 297.1c-7.3 1-55.5 19.2-64.9 5.6-5.1-7.5 6.9-9.9 12.3-11.1 12.2-2.6 25.7-3.4 38.2-4.6 12.9-1.3 26.2-3.7 38.8-7.1 10.7-2.9 25.1-13.8 36.2-9.4 4.2 19.2-49.9 25.2-60.6 26.6zm-50.7 8.1h-.1.1z"/><path class="f" d="M628.3 585c-4.9 1.6-8.2 10.9-10.9 14.5-4.4 5.9-9.6 11.3-15 16-18.3 15.6-44 17.4-64 28.5-4 1-8 2.5-11.2 4.5-9.1 5.8-20 24-.8 21.4 10.5-1.5 21.5-11.7 30.9-16.4 22.8-11.3 54.7-21.9 71.4-41.9 4.3-5.2 14.7-31.3-.4-26.6z"/><path fill-rule="evenodd" class="f" d="M676.7 511.7c-.6 12.7-3.6 25.9-7.1 38-1.8 6.4-16.7 39.5-26.7 29.1-6.2-6.5 6.5-23.4 15.3-36.2 1.4-4.7 2.3-9.4 2.9-13.5.9-6.4.6-13.2.6-19.8 0-5.1-2.9-15.6-.1-19.8 11-15.8 15.4 16.6 15.1 22.2zm-11 18.2-4.4 8.1c2.2-3.3 3.8-6.1 4.4-8.1z"/><path class="f" d="M300.8 570.8c1.6-4.5 5.5-14 .2-17-4.2-2.5-10.8 2.7-12.9 6.1-2.8 4.5-7.7 17.4-6.1 42 .6 9.1 1.3 33.7 12.6 37.4 15 4.8 4.5-25.1 3.4-30.3-2.8-13.4-1.7-25.7 2.8-38.2z"/><path class="g" d="M323.9 635.1s-16.2-8.5-21.9-.5c-12.4 17.8 26.4 33.2 26.4 33.2s29.4-22.6 17.4-35.6c-8.2-8.9-21.9 2.9-21.9 2.9zM373.4 340.6s-17.7 5-16.2 14.7c3.1 21.5 41.9 6 41.9 6s5.9-36.5-11.7-37.8c-12.1-.9-14 17.1-14 17.1zM720.4 451.2s-13.5-12.4-21-6.1c-16.6 14.1 17.1 38.9 17.1 38.9s34.1-14.4 25.9-30c-5.7-10.7-22-2.8-22-2.8zM602 652s-8.2 16.4 0 21.9c18 12.1 32.6-27.1 32.6-27.1s-23.2-28.8-36-16.6c-8.7 8.3 3.4 21.8 3.4 21.8zM330.9 531.6s-14.5-11.2-21.5-4.2c-15.3 15.4 20.3 37.2 20.3 37.2s32.8-17.2 23.3-32.1c-6.5-10.1-22.1-.9-22.1-.9zM584.5 281.7s4.1-17.9-5.2-21.3c-20.4-7.5-25.3 34-25.3 34s29.4 22.6 38.9 7.7c6.5-10.2-8.4-20.4-8.4-20.4zM530.1 715.3s-17.6-5.1-21.5 3.9c-8.7 19.9 32.4 27.3 32.4 27.3s24.3-28 10-38.4c-9.8-7-20.9 7.2-20.9 7.2z"/><path class="h" d="M281.1 455.8s-18.3 1.3-18.9 11.1c-1.1 21.7 40 14.3 40 14.3s13-34.7-4-39.4c-11.7-3.2-17.1 14-17.1 14zM640.6 398.9s-2.7-18.2-12.5-18c-21.7.4-11.3 40.8-11.3 40.8s35.6 10.5 39-6.8c2.4-11.9-15.2-16-15.2-16zM699.8 626.1s-13.3-12.7-20.9-6.4c-16.8 13.8 16.4 39.1 16.4 39.1s34.4-13.9 26.4-29.6c-5.5-10.8-21.9-3.1-21.9-3.1zM436.9 654.6s-18.3 1.4-18.8 11.2C416.9 687.5 458 680 458 680s13-34.7-4-39.4c-11.7-3.2-17.1 14-17.1 14zM329.1 382.6s-7-17-16.5-14.5c-20.9 5.6-1.2 42.4-1.2 42.4s37 1.6 36.3-16c-.5-12.1-18.6-11.9-18.6-11.9zM700 539.9s-17.8 4.7-16.5 14.5c3 21.5 41.9 6.5 41.9 6.5s6.3-36.5-11.3-38c-12-1-14.1 17-14.1 17zM647.3 316.3s-15.6-9.6-21.8-2c-13.6 16.9 24 35 24 35s30.9-20.6 19.9-34.3c-7.6-9.5-22.1 1.3-22.1 1.3zM470.1 281.8s-12.8 13.2-6.6 20.9c13.7 16.9 39.2-16.2 39.2-16.2s-13.6-34.4-29.3-26.6c-10.8 5.4-3.3 21.9-3.3 21.9z"/><path class="f" d="M352.2 603.5c0 5.2-4.2 9.5-9.5 9.5-5.2 0-9.5-4.3-9.5-9.5 0-5.3 4.3-9.5 9.5-9.5 5.3 0 9.5 4.2 9.5 9.5zM397.6 618.3c0 5.2-4.3 9.4-9.5 9.4-5.3 0-9.5-4.2-9.5-9.4 0-5.3 4.2-9.5 9.5-9.5 5.2 0 9.5 4.2 9.5 9.5zM391.3 659.4c0 5.2-4.3 9.5-9.5 9.5-5.3 0-9.5-4.3-9.5-9.5 0-5.3 4.2-9.5 9.5-9.5 5.2 0 9.5 4.2 9.5 9.5zM489.3 719.5c0 5.2-4.2 9.5-9.4 9.5-5.3 0-9.5-4.3-9.5-9.5s4.2-9.5 9.5-9.5c5.2 0 9.4 4.3 9.4 9.5zM506.2 685.8c0 5.2-4.2 9.4-9.5 9.4-5.2 0-9.5-4.2-9.5-9.4 0-5.3 4.3-9.5 9.5-9.5 5.3 0 9.5 4.2 9.5 9.5zM603.3 698.4c0 5.3-4.3 9.5-9.5 9.5-5.3 0-9.5-4.2-9.5-9.5 0-5.2 4.2-9.5 9.5-9.5 5.2 0 9.5 4.3 9.5 9.5zM670.8 667.8c0 5.3-4.3 9.5-9.5 9.5-5.3 0-9.5-4.2-9.5-9.5 0-5.2 4.2-9.5 9.5-9.5 5.2 0 9.5 4.3 9.5 9.5zM671.8 607.7c0 5.2-4.2 9.5-9.5 9.5-5.2 0-9.5-4.3-9.5-9.5s4.3-9.5 9.5-9.5c5.3 0 9.5 4.3 9.5 9.5zM726.7 601.4c0 5.2-4.3 9.5-9.5 9.5-5.3 0-9.5-4.3-9.5-9.5 0-5.3 4.2-9.5 9.5-9.5 5.2 0 9.5 4.2 9.5 9.5zM700.3 491.7c0 5.2-4.3 9.5-9.5 9.5s-9.5-4.3-9.5-9.5c0-5.3 4.3-9.5 9.5-9.5s9.5 4.2 9.5 9.5zM736.2 415.7c0 5.3-4.3 9.5-9.5 9.5-5.3 0-9.5-4.2-9.5-9.5 0-5.2 4.2-9.5 9.5-9.5 5.2 0 9.5 4.3 9.5 9.5zM686.6 391.5c0 5.2-4.3 9.5-9.5 9.5s-9.5-4.3-9.5-9.5c0-5.3 4.3-9.5 9.5-9.5s9.5 4.2 9.5 9.5zM608.5 348.2c0 5.3-4.2 9.5-9.5 9.5-5.2 0-9.4-4.2-9.4-9.5 0-5.2 4.2-9.5 9.4-9.5 5.3 0 9.5 4.3 9.5 9.5zM543.1 314.5c0 5.2-4.2 9.5-9.5 9.5-5.2 0-9.4-4.3-9.4-9.5 0-5.3 4.2-9.5 9.4-9.5 5.3 0 9.5 4.2 9.5 9.5zM550.5 264.9c0 5.2-4.2 9.5-9.5 9.5-5.2 0-9.5-4.3-9.5-9.5s4.3-9.5 9.5-9.5c5.3 0 9.5 4.3 9.5 9.5zM455.6 338.7c0 5.3-4.3 9.5-9.5 9.5s-9.5-4.2-9.5-9.5c0-5.2 4.3-9.5 9.5-9.5s9.5 4.3 9.5 9.5zM458.8 305c0 5.2-4.3 9.5-9.5 9.5-5.3 0-9.5-4.3-9.5-9.5 0-5.3 4.2-9.5 9.5-9.5 5.2 0 9.5 4.2 9.5 9.5zM343.8 442.1c0 5.2-4.3 9.5-9.5 9.5s-9.5-4.3-9.5-9.5 4.3-9.5 9.5-9.5 9.5 4.3 9.5 9.5zM358.6 478c0 5.2-4.3 9.5-9.5 9.5-5.3 0-9.5-4.3-9.5-9.5 0-5.3 4.2-9.5 9.5-9.5 5.2 0 9.5 4.2 9.5 9.5zM306.9 507.5c0 5.2-4.3 9.5-9.5 9.5-5.3 0-9.5-4.3-9.5-9.5s4.2-9.5 9.5-9.5c5.2 0 9.5 4.3 9.5 9.5zM386 401c0 5.2-4.3 9.5-9.5 9.5-5.3 0-9.5-4.3-9.5-9.5 0-5.3 4.2-9.5 9.5-9.5 5.2 0 9.5 4.2 9.5 9.5z"/></svg>