<svg version="1.2" xmlns="http://www.w3.org/2000/svg" width="1000" height="1000"><style>.s1{fill:#bc6348}.s4{fill:#efd09a}.s5{fill:#fff}.s6{fill:#d6b88b}.s7{fill:#ef7bbd}.s8{fill:#7adced}</style><g id="Layer 1"><g id="&lt;Group&gt;"><g id="&lt;Group&gt;"><path id="&lt;Compound Path&gt;" fill-rule="evenodd" d="M778.5 501.3c0 152-123.3 275.3-275.3 275.3S227.9 653.3 227.9 501.3 351.2 226 503.2 226s275.3 123.3 275.3 275.3zm-173.5 0c0-56.2-45.6-101.8-101.8-101.8-56.2 0-101.8 45.6-101.8 101.8 0 56.2 45.6 101.8 101.8 101.8 56.2 0 101.8-45.6 101.8-101.8z" style="fill:#e77243"/><path id="&lt;Path&gt;" class="s1" d="M675.9 287c52.8 50.1 85.7 121 85.7 199.5 0 152.1-123.2 275.3-275.3 275.3-65.4 0-125.5-22.8-172.7-60.9 49.3 46.9 116.1 75.7 189.6 75.7 152 0 275.3-123.3 275.3-275.3 0-86.6-40-163.9-102.6-214.3z"/><path id="&lt;Path&gt;" d="M261.9 538.1c-.8-166.9 91.4-280 285.6-276.9 66.2 1.1 103.9 18.5 146.4 45.4C643.8 255 573.8 223 496.3 223 344.3 223 221 346.2 221 498.3c0 98 51.3 184 128.4 232.8-48.1-49.6-87.1-118.5-87.5-193z" style="fill:#f28a55"/><path id="&lt;Path&gt;" class="s1" d="M419.4 559.2c-10.3-16-17.5-37.7-17.5-58.2 0-56.2 44.5-101.2 100.7-101.2 34.7 0 67.8 19.6 86.1 46.2-1.4-19.8-16.3-35.5-32.5-46.8-24.2-16.8-48.2-20.1-76.3-15.3-43.1 7.6-99.9 55.3-92.1 119.9 2.8 23.5 12.7 42.3 31.6 55.4z"/></g><g id="&lt;Group&gt;"><g id="&lt;Group&gt;"><path id="&lt;Compound Path&gt;" fill-rule="evenodd" d="M754.8 554.7c-2.3 24-15.8 53-42.7 67.2-44.1 23.3-40.5 89.3-67.1 94.4-18 3.4-36.9-4.3-54.9-5-14.2-.6-28.1 1.9-40.6 8.7-19.1 10.3-48.2 27.5-70.8 26.9-90.2-2.4-57.8-64.8-144-73.5-24.8-2.6-49.1-15.3-54.4-41.4-4.4-22 7.1-46.3-8.1-66.1-7.7-10.1-18.5-17.2-26.1-27.8-8.7-12.3-13.5-26.1-14.2-41.1-1.4-29 11.4-51.2 30.9-71.3 16.9-17.5 21.2-31 22.3-56.1 1.1-26.2 10.8-49.6 31.4-66.3 15.6-12.6 84.5-37.9 98.9-45.3 35.6-18.2 29.3-27.6 57-30 12.6-1.1 59 14.5 71.2 18.2 31.4 9.5 67.1-7 91 22 10.9 13.4 43.2 70.4 59.5 80.8 19.6 12.6 34.2 24.8 40.3 48.2 5.2 20.3 5.8 35.6 3.8 55.4-2 19.1 7.5 30.4 13.2 46.8 6.3 17.9 5.1 36.6 3.4 55.3zM636.1 441.6c-8.3-10.3-18.5-17.9-27.1-27.7-11.3-13-9.4-25.9-15.6-40.4-16.6-38.8-54.6-34.8-89.4-15.8-12.9 7-38.2 4-51.4-2.5-12.9-6.5-26.3-13.2-38.8-1.5-11.1 10.5-10.6 26.2-13.5 39.6-3.5 16.3-11.3 20.4-24.6 29.1-7.4 4.8-29.1 31.8-30.7 63.5 2.3 11.2 13.4 20.5 20.8 31.9 10.3 15.6.7 26.1 2.1 43.8 1.6 20.8 11.5 35.8 31.6 42.8 8.3 2.8 16.9 3.4 24.6 8 6.5 3.9 12.2 9.1 18.2 13.7 13.1 10 32 24.5 48.3 18 12.8-5.1 43.9-4.6 56.1-11.1 65.7-34.8 80.5-30.8 89.4-91.8 10-68.2 19.8-75.1 0-99.6z" style="fill:#f2e7ad"/><g id="&lt;Group&gt;"><path id="&lt;Path&gt;" class="s4" d="M352.9 548.1c1.4 17.7 8.7 31.2 23.3 39.1-4.8-7-7.5-15.7-8.3-25.6-1.4-17.7 8.2-28.2-2.1-43.8-7.4-11.4-18.5-20.7-20.8-31.9 1.6-31.7 23.3-58.7 30.7-63.5 13.3-8.7 21.1-12.8 24.6-29.1 2.9-13.4 2.4-29.1 13.5-39.6 12.5-11.7 25.9-5 38.8 1.5 13.2 6.5 38.5 9.5 51.4 2.5 23.8-13 49.1-19 68-9-18.7-26.4-52.1-21.3-83-4.4-12.9 7-38.2 4-51.4-2.6-13-6.4-26.3-13.2-38.8-1.4-11.1 10.4-10.6 26.1-13.5 39.6-3.5 16.3-11.4 20.3-24.6 29-7.4 4.8-29.1 31.9-30.7 63.5 2.3 11.3 13.4 20.5 20.8 31.9 10.3 15.7.7 26.1 2.1 43.8zM679 335.6q1.9 1.2 3.7 2.4c-16.9-20.4-39.4-59.1-48.1-69.8-4.2-5-8.7-8.7-13.5-11.3 12.2 16.3 42.4 68.7 57.9 78.7zM751.4 499.4c-5.7-16.4-15.2-27.7-13.2-46.8 2-19.8 1.4-35.1-3.8-55.4-4.9-18.8-15.3-30.4-29.4-40.7 6.5 7.3 11.4 16 14.4 27.3 5.2 20.2 5.7 35.6 3.7 55.4-1.9 19 7.5 30.3 13.3 46.7 6.2 18 5.1 36.7 3.3 55.4-2.2 23.9-15.8 52.9-42.7 67.2-44 23.3-40.4 89.2-67 94.3-18 3.4-36.9-4.3-55-5-14.1-.5-28.1 2-40.5 8.7-19.1 10.4-48.2 27.6-70.8 27-25.3-.7-41-6.1-52.3-13.7 12.6 14.1 28.7 26.1 67.3 27.1 22.6.6 51.7-16.6 70.8-26.9 12.5-6.8 26.4-9.3 40.6-8.7 18 .7 36.9 8.4 54.9 5 26.6-5.1 23-71.1 67.1-94.4 26.9-14.2 40.4-43.2 42.7-67.2 1.7-18.7 2.9-37.4-3.4-55.3zM319.7 659.9c-11.2-1.1-22.2-4.3-31.5-9.9 10.4 14.1 28.3 21.5 46.5 23.4 21.8 2.1 36 7.8 46.5 15-11.9-13.2-27.4-25.1-61.5-28.5z"/></g></g><g id="&lt;Group&gt;"><path id="&lt;Path&gt;" class="s5" d="M302.3 435.1c6.9-8.7 22.3-29 16.9-42.3-2.4-5.7-11.6-6.6-14.6.5-2 4.8-11.5 20.1-19.8 31 0 0-8 9.9-10.5 12.5-8.9 9.7-14.7 21.9-17.1 34.8-2.6 14.4-.4 28.5 7.1 41.2 7.8 13.1 23.9 21 26.1.5 1.4-13-11.4-24.3-10-38 1.3-12.9 13.6-30 21.9-40.2z"/></g><path id="&lt;Path&gt;" class="s5" d="M374.3 290.5c-15.7 9.6-36.5 10.1-46.8 20.9-12 7.1-11.1 41.6 8 29.7 7.7-4.8 7.2-16.7 12.1-23.5 5.5-7.8 14.6-12.9 23.5-15.2 8-2.1 28.9-3.6 30.9-15.1 3.4-19.7-23.3.5-27.7 3.2z"/><path id="&lt;Compound Path&gt;" class="s5" d="M651.9 538.9c-5.5.4-5.7 9.5-6.5 13.2-2.6 12.2-6.4 25.4-10.7 36.8-5.4 14.4-16.2 18.1-27.8 26.9-11.8 8.8-20.6 16-34.9 21-10.3 3.6-63.2 12-55.4 22.3 5.6 8.4 29.3-1.3 36.5-4.1 12-4.8 23.5-7.5 35.6-11.7 13.4-4.7 24.6-15.1 36.4-22.8 12.6-8.2 18.9-15.3 23.7-29.4 3.8-11.2 9.9-27.2 10.3-38.8.1-4.1-1.3-13.9-7.2-13.4z"/><path id="&lt;Path&gt;" class="s5" d="M670.4 467.2c.8-6.5 1.2-23.1-9-22.9-10.5.2-8.1 15.3-5.6 21.1 4.6 10.9 6.2 19.2 2.2 30.8-.9 2.4-9 20.6-7.7 26.9 1.4 6.7 8.8 8.4 13.5 3.6 6.9-7 10.4-19.1 10.3-28.6-.1-10.7-4.9-20.1-3.7-30.9z"/><path id="&lt;Path&gt;" class="s6" d="m478.5 298.1-14.8-6-13.3 8.7 1.2-15.9-12.4-10 15.5-3.8 5.7-14.9 8.3 13.6 16 .8-10.4 12.2z"/><path id="&lt;Path&gt;" class="s7" d="m476.9 295.5-14.7-6.1-13.4 8.8 1.2-15.9-12.4-10.1 15.5-3.7 5.7-14.9 8.4 13.6 15.9.8-10.3 12.1z"/><path id="&lt;Path&gt;" class="s6" d="M588 323.4 578 311l-15.9 1.2 8.7-13.3-6-14.8 15.4 4.2 12.1-10.4.8 16 13.6 8.3-14.9 5.7z"/><path id="&lt;Path&gt;" class="s7" d="m587 321.3-10-12.4-15.9 1.2 8.7-13.3-6.1-14.8 15.4 4.2 12.2-10.4.8 16 13.5 8.3-14.8 5.7z"/><path id="&lt;Path&gt;" class="s6" d="m354 657.8-14.7-6-13.4 8.7 1.2-15.9-12.4-10 15.5-3.8 5.7-14.9 8.4 13.6 15.9.8-10.3 12.1z"/><path id="&lt;Path&gt;" class="s7" d="m351.5 656.2-14.8-6.1-13.3 8.7 1.2-15.9-12.4-10 15.5-3.7 5.6-14.9 8.4 13.5 15.9.8-10.3 12.2z"/><path id="&lt;Path&gt;" class="s6" d="m707.6 524.2-14.8-6-13.3 8.7 1.2-15.9-12.4-10 15.5-3.8 5.7-14.9 8.3 13.6 15.9.8-10.3 12.1z"/><path id="&lt;Path&gt;" class="s7" d="m705.7 521.9-14.7-6-13.4 8.7 1.2-15.9-12.4-10 15.5-3.8 5.7-14.9 8.4 13.6 15.9.8-10.3 12.1z"/><path id="&lt;Path&gt;" class="s6" d="m474.1 744.4-4.7-15.2-15.3-4.7 13.1-9.2-.2-16 12.8 9.6 15.1-5.1-5.2 15.1 9.5 12.8-15.9-.3z"/><path id="&lt;Path&gt;" class="s7" d="m471.4 742.3-4.7-15.2-15.2-4.8 13-9.1-.2-16 12.8 9.6 15.1-5.1-5.1 15.1 9.5 12.7-15.9-.2z"/><path id="&lt;Path&gt;" class="s6" d="m545.3 685.4-4.7-15.3-15.3-4.7 13.1-9.2-.2-15.9 12.7 9.5 15.2-5.1-5.2 15.1 9.5 12.8-15.9-.2z"/><path id="&lt;Path&gt;" class="s7" d="m542.1 682.7-4.7-15.2-15.2-4.7 13-9.2-.2-16 12.8 9.6 15.1-5.1-5.1 15.1 9.5 12.7-16-.2z"/><path id="&lt;Path&gt;" class="s6" d="m667.1 406.1-12.6-9.8-15.2 4.9 5.4-15-9.3-13 16 .5 9.4-12.8 4.5 15.3 15.1 5-13.2 9z"/><path id="&lt;Path&gt;" class="s8" d="m663.9 406.1-12.6-9.8-15.1 4.9 5.4-15-9.3-13 15.9.5 9.4-12.8 4.5 15.3 15.1 5-13.2 9z"/><path id="&lt;Path&gt;" class="s6" d="m330.5 534-15.4-4.3-12.2 10.2-.7-15.9-13.5-8.5 14.9-5.6 3.9-15.4 9.9 12.5 15.9-1.1-8.8 13.3z"/><path id="&lt;Path&gt;" class="s8" d="m328.4 532.4-15.4-4.3-12.2 10.2-.7-15.9-13.5-8.5 14.9-5.6 3.9-15.4 9.9 12.5 15.9-1.1-8.8 13.3z"/><path id="&lt;Path&gt;" class="s6" d="m675.9 647.9-15.4-4.3-12.2 10.2-.7-15.9-13.5-8.5 15-5.6 3.9-15.4 9.9 12.5 15.9-1.1-8.8 13.3z"/><path id="&lt;Path&gt;" class="s8" d="m673.6 646.6-15.4-4.3-12.2 10.3-.7-16-13.5-8.5 14.9-5.5 3.9-15.5 9.9 12.5 15.9-1.1-8.8 13.3z"/><path id="&lt;Path&gt;" class="s6" d="m336.9 371.2-10.4-12-15.9 1.8 8.2-13.6-6.6-14.5 15.5 3.5 11.8-10.8 1.4 15.9 13.9 7.8-14.7 6.3z"/><path id="&lt;Path&gt;" class="s8" d="m334.8 369.1-10.5-12-15.8 1.8 8.2-13.7-6.6-14.5 15.5 3.6 11.7-10.8 1.5 15.9 13.9 7.8-14.7 6.3z"/></g></g></g></svg>