<svg version="1.2" xmlns="http://www.w3.org/2000/svg" width="1000" height="1000"><style>.s1{fill:#bc6348}.s4{fill:#c92d69}.s5{fill:#f2619c}.s8{fill:#f2e7ad}.s9{fill:#d6b88b}</style><g id="Layer 1"><g id="&lt;Group&gt;"><g id="&lt;Group&gt;"><path id="&lt;Compound Path&gt;" fill-rule="evenodd" d="M503.1 776.6c-152.2 0-275.3-123.1-275.3-275.3 0-152.2 123.1-275.3 275.3-275.3 152.2 0 275.3 123.1 275.3 275.3 0 152.2-123.1 275.3-275.3 275.3zm101.8-275.3c0-56.3-45.5-101.8-101.8-101.8S401.3 445 401.3 501.3s45.5 101.8 101.8 101.8 101.8-45.5 101.8-101.8z" style="fill:#e77243"/><path id="&lt;Path&gt;" class="s1" d="M675.9 287c52.7 50.1 85.6 121 85.6 199.5 0 152.1-123.2 275.3-275.2 275.3-65.5 0-125.5-22.8-172.8-60.9 49.4 46.9 116.1 75.7 189.6 75.7 152.1 0 275.3-123.3 275.3-275.3 0-86.6-40-163.9-102.5-214.3z"/><path id="&lt;Path&gt;" d="M261.8 538.1c-.8-166.9 91.5-280 285.6-276.9 66.2 1.1 103.9 18.5 146.4 45.4-50-51.6-120-83.6-197.5-83.6C344.2 223 221 346.2 221 498.3c0 98 51.2 184 128.3 232.8-48.1-49.6-87.1-118.5-87.5-193z" style="fill:#f28a55"/><path id="&lt;Path&gt;" class="s1" d="M419.4 559.2c-10.4-16-17.6-37.7-17.6-58.2 0-56.2 44.5-101.2 100.7-101.2 34.7 0 67.8 19.6 86.2 46.2-1.4-19.8-16.3-35.5-32.5-46.8-24.2-16.8-48.3-20.1-76.3-15.3-43.1 7.6-100 55.3-92.2 119.9 2.9 23.5 12.8 42.3 31.7 55.4z"/></g><g id="&lt;Group&gt;"><path id="&lt;Compound Path&gt;" fill-rule="evenodd" d="M765 491.7c-9.3 24.5-31.7 41.2-43 64.3-9.8 20.1-4.1 43.5-2.1 64.4 6.1 65.2-74.7 95.5-129.7 101.3-35.3 3.7-64.7-1.1-98.3 14.4-42.9 19.7-83.1-1.7-117.5-30.1-29.3-24.1-42.2-58.6-75.1-78.6-17.9-10.8-36.8-19.8-47.5-38.5-8.2-14.4-13.2-29.1-15.2-45.6-3.3-26.9 8.6-58.3 20.2-82.5 6.5-13.6 15.3-26.3 19.8-40.8 3.7-11.7-9.2-67.6 43.6-124.3 12.9-13.8 30.2-22.8 48.5-29 37.6-12.7 77.5-6.4 117.1-10 47.5-4.3 94.2-18.8 135 16.6 19.3 16.7 37.4 31.5 58.8 46.2 24.3 16.7 46.6 31.6 59.6 59.1 14.9 31.5 39.1 78.1 25.8 113.1zm-156.9-30.6c-11-19.9-8.3-52.2-24.3-69.6-16.9-18.5-71.7-40.1-116-23.2-37.5 14.3-66.6 15.1-82.3 50.6-15.8 35.9 6.4 40.1-3.1 72.8-3.9 13.2-15.4 24-17.9 37.9-6.3 33.8 50.2 69.3 95.9 89.7 116.1 51.7 149-53 161.4-85.4 10.4-27.2-1.2-50.2-13.7-72.8z" style="fill:#ee3473"/><g id="&lt;Group&gt;"><path id="&lt;Path&gt;" class="s4" d="M286.6 613.7c-11.1-6.7-22.6-12.7-32.3-20.8 11 16 28.5 24.5 45 34.5 6.9 4.2 12.9 9.1 18.4 14.4-8.8-10.6-18.4-20.4-31.1-28.1zM374 560.3c-7.6-10.1-11.4-20.4-9.5-30.7 2.5-13.9 14-24.7 17.9-37.9 9.5-32.7-12.7-36.9 3.1-72.8 15.7-35.5 44.8-36.3 82.3-50.6 39.1-14.9 86.3.2 108.6 16.6-1.5-2.6-3.2-5-5.2-7.1-17-18.5-71.7-40.1-116-23.2-37.6 14.2-66.7 15.1-82.3 50.6-15.8 35.8 6.3 40.1-3.2 72.8-3.8 13.2-15.3 24-17.9 37.9-2.8 15 6.8 30.3 22.2 44.4zM739.2 378.6c-6.2-13-14.5-23.2-24-32.1 4.3 5.5 8.1 11.5 11.3 18.4 15 31.5 39.1 78.1 25.9 113.1-9.4 24.5-31.8 41.2-43 64.3-9.9 20.1-4.1 43.5-2.2 64.4 6.1 65.2-74.7 95.5-129.7 101.2-35.3 3.8-64.6-1-98.3 14.5-42.9 19.6-83-1.7-117.5-30.1q-3.8-3.2-7.3-6.5c6 7.1 12.4 14 20 20.2 34.4 28.4 74.6 49.8 117.5 30.1 33.6-15.5 63-10.7 98.3-14.4 55-5.8 135.8-36.1 129.7-101.3-2-20.9-7.7-44.3 2.1-64.4 11.3-23.1 33.7-39.8 43-64.3 13.3-35-10.9-81.6-25.8-113.1z"/></g></g><g id="&lt;Group&gt;"><path id="&lt;Path&gt;" class="s5" d="M439.1 276.7c-13-8.9-34.7-8.1-49.4-4.4-68.4 17.2-99.6 65.4-105.5 149.7-4.1 59.2-33.3 86.9-28.4 118.2 3.3 20.3 18.6 32.5 33.7 44.1 10.4 7.9 33.1 37.9 44.1 20.2 9.9-16.1-1.3-37.2-7.4-52.7-7.2-18-11.5-37.7-5.8-56.7 5.6-18.7 11.5-34.1 12.4-53.8.9-19.2-7-37-5.3-56.1 4.1-44.1 42.5-66.9 81-76 12.7-3 55.5-15.4 30.6-32.5z"/></g><path id="&lt;Path&gt;" class="s5" d="M692.4 454.2c-4.6-13.2-11.7-29-24.2-36.5-9.1-5.4-22-7.8-31.1-.8-10.5 8.1 2 24.9 3.2 36.8 3.6 38.5 8.2 77.1-6.4 114.4-10.9 28-24.2 53.3-73.3 79.7-7.3 3.9-39 15.3-51.1 23.2-.3.2-19 16.3 18.9 22.2 22 3.3 48.4-8.7 68.3-14.3 24.3-6.8 59.2-10.8 72.7-35.7 7.9-14.6 2.7-32.7 2-48.2-.8-16.4 1.1-33.9 7.5-49.1 6.2-14.7 15.8-26.8 19.5-42.6 4.2-17.8-.3-32.3-6-49.1z"/><path id="&lt;Path&gt;" d="M410.3 279.7c-13.3-5.1-28.8.3-42.1 7.6-7 2.5-14.6 7.8-20.5 10.7-6.6 3.2-10.8 6.9-15.3 12.8-9.3 12-19.5 21.3-24 36.3-2.2 7.3-3.1 15-2.5 22.6.6 6.7 4.1 11 9.5 4.9 5.3-6.1 6.6-15.2 9.4-22.6 3.6-9.8 11.2-18.4 18.4-25.9 17.4-18.1 41.5-22.2 64.9-28.1 10.1-2.5 13.6-14 2.2-18.3z" style="fill:#f27288"/><path id="&lt;Compound Path&gt;" d="M650.3 573.9c-2.9-15.2-14.5 2.9-17.8 8-5.4 8.2-7.6 15-10 24.2-.5 1.8-1.1 3.9-1.8 6.1-7.1 11.5-15.1 22.7-25.5 31.1-10.4 8.4-23.2 13.8-35.6 17.8-4.3 1.4-13.2 3.1-13.8 8.8-.6 6.1 6.9 6.7 11.5 6.3 13.7-1.1 24.2-9.7 36.7-14.3 13.4-5 28.4-9.2 39-19.4 9.8-9.4 9.9-21.1 11-33.6.9-11.1 8.4-23.7 6.3-35z" style="fill:#fc86bf"/><path id="&lt;Compound Path&gt;" class="s8" d="M429.6 577.8c-27.8 13-52.8 32.4-79.9 46.7-11.2 5.9-22.4 15.1-34.8 16.4-17.5 1.9-24.1-6.8-15.2-22.1 8.3-14.4 20.2-27.3 30.4-40.4 10.2-13.1 19.4-27.2 31.2-38.2 14.2-13.2 25.6-23.8 38-39 4.4-5.5 14.1-20 6.3-24.8-5.6-3.5-61.8 57.2-85 83.8-19.8 22.7-43 51.3-47 81.3-4.4 32.1 27.6 35.6 50 24.1 30.2-15.5 61.8-33.1 89.4-52.4 11.4-7.9 24.7-15.4 33.4-25.9 5.3-6.5-5.4-14.8-16.8-9.5z"/><g id="&lt;Group&gt;"><path id="&lt;Path&gt;" class="s9" d="M393.3 496.1c-12.3 15.2-23.7 25.8-37.9 39.1-11.9 10.9-21.1 25.1-31.2 38.2-10.2 13.1-22.2 26-30.5 40.3-6.2 10.9-4.8 18.5 2.9 21.3-1.7-3.9-.8-9.4 3.1-16.1 8.3-14.4 20.2-27.3 30.4-40.4 10.2-13 19.4-27.2 31.2-38.2 14.2-13.2 25.6-23.8 38-39 4.4-5.5 14.1-20 6.3-24.8-.6-.3-1.6-.1-3 .7-.1 6.3-6.1 15-9.3 18.9zM441.6 577c.5 1.7.3 3.5-1.2 5.3-8.6 10.5-22 18-33.4 25.9-27.6 19.2-59.1 36.8-89.4 52.4-12.9 6.7-29.2 8.3-39.7 2.1 9.2 11.8 29.9 11.2 45.7 3.1 30.2-15.6 61.8-33.2 89.4-52.5 11.4-7.9 24.7-15.4 33.4-25.9 3.3-4 .5-8.7-4.8-10.4z"/></g><path id="&lt;Path&gt;" class="s8" d="M712.2 350.4c-10.5-10.1-25.7-2.3-35.8 4.1-11.6 7.3-23 14.5-34.8 21.2-26.2 14.9-71.7 42.7-72.8 43.7-6.8 6.1-.8 17 10.3 15 14.1-2.4 15.5-11.6 26.9-19.9 20.9-15.4 41.6-34.1 65.7-44.3 11.2-4.9 29.7-4.3 23.7 12.8-3.9 11-17.1 23.4-25.4 31.1-19.2 17.9-35.1 39.3-53.2 58.9-8 8.7-12.5 6.6-17.1 17.6-7.8 18.5 7.1 17.3 13.4 11.7 28.6-25.3 54.8-55 79.7-84.5 13.8-16.3 40.4-47.3 19.4-67.4z"/><g id="&lt;Group&gt;"><path id="&lt;Path&gt;" class="s9" d="M605.9 414.5c21-15.4 41.7-34.1 65.7-44.3 5.6-2.4 13-3.5 18.3-1.8-4-5.9-15.5-5.2-23.4-1.8-24 10.3-44.7 28.9-65.7 44.3-11.4 8.4-12.8 17.6-26.9 20-2.3.4-4.4.2-6.3-.4 2.2 2.9 6.3 4.8 11.5 3.9 14.1-2.4 15.5-11.6 26.8-19.9zM712.2 350.4c-1.6-1.5-3.2-2.6-5-3.3 20.6 20-5.8 50.9-19.6 67.2-24.8 29.4-51.1 59.1-79.7 84.4-2.6 2.3-6.6 3.9-10 3.6 2.1 5.7 10.8 3.9 15.2 0 28.6-25.3 54.8-55 79.7-84.5 13.8-16.3 40.4-47.3 19.4-67.4z"/></g><path id="&lt;Path&gt;" class="s8" d="M755.9 521c-11.5-24.7-49.6-18.3-67.9-7.9-14 7.9-25.6 21.5-37.8 31.8-16.5 13.8-33 28.2-48.8 43.1-24.8 23.5-50.1 48.3-76.8 69.9-11.7 9.4-22.3 19.8-32.9 30.3-6.2 6-23.1 27.2-33 20.5-18.4-12.4 23.6-62.6 32.2-72.9 5.9-7.1 30.3-25 25.7-34.4-15.8-11.1-29.2 10.1-35.3 17.6-15 18.5-26.6 38.5-35.7 60.6-5 12.1-13.3 32.1-2.1 43.2 22.7 22.4 69.5-17.1 84.8-31.6 46-43.4 84.9-95.9 134-135.8 15.4-12.5 31.2-25.3 48.2-35.2 6.5-3.8 15.7-6.9 23.4-5.2 15.5 3.5 15.9 23.5 9.2 35.3-9.3 16.2-19.1 33.8-30.1 48.9-11.5 15.7-24.4 32.2-38.5 45.2-17.5 16-40.9 26.7-59.7 41.6-9 7.1-39.1 30-35.1 45.3 4.3 16.6 22-7.4 26.1-12.4 22.6-27.4 51.7-49.4 77.5-73.3 19.9-18.5 37.7-35.8 54.1-57.8 12.4-16.5 28.4-45.3 18.5-66.8z"/><g id="&lt;Group&gt;"><path id="&lt;Path&gt;" class="s9" d="M513.4 600.2c4.7 9.4-19.7 27.4-25.6 34.4-8.7 10.3-50.6 60.5-32.2 73 1.2.8 2.5 1.2 3.8 1.2-16-13.5 24.6-62.1 33.1-72.3 5.9-7 30.3-24.9 25.7-34.3-2-1.5-4-2.4-6-2.8l1.2.8zM663.9 556.2c15.4-12.6 31.2-25.3 48.2-35.2 6.5-3.8 15.7-6.9 23.3-5.2q.3.1.5.1c-1.5-.9-3.2-1.6-5.2-2.1-7.6-1.7-16.9 1.5-23.3 5.2-17.1 9.9-32.9 22.7-48.3 35.2-49.1 39.9-87.9 92.4-134 135.9-13.4 12.6-50.7 44.3-75 37.2 23.9 13.4 65.5-21.8 79.8-35.3 46-43.4 84.9-95.9 134-135.8z"/><path id="&lt;Path&gt;" class="s9" d="M757.5 521.8c-3.6-7.8-9.9-12.5-17.3-14.9 5.3 2.7 9.7 6.9 12.5 12.9 10 21.5-6.1 50.3-18.4 66.8-16.4 22-34.3 39.3-54.2 57.8-25.7 23.9-54.9 45.9-77.4 73.3-3 3.6-12.9 16.9-19.9 18.1 6 8.4 20.9-11.5 24.6-16.1 22.5-27.4 51.7-49.4 77.5-73.3 19.8-18.5 37.7-35.8 54.1-57.8 12.4-16.5 28.4-45.3 18.5-66.8z"/></g><path id="&lt;Path&gt;" class="s8" d="M545.7 278c-12.2-3.2-29.5 5.5-40.2 10.7-13.5 6.6-25.7 14.5-37.9 23.3-16.5 11.8-150.1 126.8-158.3 109.8-3-6.1 15.9-28.1 19.8-32.5 11.4-12.8 23.6-24.8 36.6-36.2 24.8-21.6 101.1-78.9 97.1-90.3-4.3-12.1-21.4 7.7-27.7 11.7-26.6 16.8-48.3 38.3-72.1 58.5-21.5 18.2-74.6 84.4-71.1 95.1 4.6 14 18.9 15.8 30.9 10.5 30.7-13.6 139.3-97.8 164.5-120.4 11.9-10.7 29-30.2 47.5-25.3 25.3 6.6-17.9 47.8-25.5 55.9-7.9 8.4-15.6 17.1-22.6 26.4-2.1 2.7-15.5 22.8-14.4 26.8 1.7 6.6 10.6 8 15.2 4.2 4.2-3.5 5.7-12.6 8.3-17.6 3.7-7.2 53.5-55.1 62.7-81.5 4.2-12 .7-25.5-12.8-29.1z"/><g id="&lt;Group&gt;"><path id="&lt;Path&gt;" class="s9" d="M360.2 349.1c-13 11.3-25.2 23.3-36.6 36.2-3.9 4.3-22.8 26.4-19.8 32.5.8 1.5 2.6 2 5.3 1.5 1.1-8.2 16.6-26.2 20-30.1 11.4-12.8 23.7-24.8 36.7-36.2 24.7-21.6 101.1-78.9 97-90.3-1.1-3.1-3-4.1-5.5-3.8 3.4 11.7-72.5 68.6-97.1 90.2zM549.4 279.3c5.7 5.9 6.6 15.2 3.6 23.7-9.2 26.4-59 74.4-62.7 81.5-2.6 5.1-4.1 14.1-8.3 17.6-2.3 2-5.8 2.5-8.9 1.8 2.9 4.8 10.4 5.6 14.5 2.2 4.2-3.5 5.7-12.6 8.3-17.6 3.7-7.2 53.5-55.1 62.7-81.5 3.7-10.8 1.2-22.8-9.2-27.7zM534.8 292.8q.6.1 1.2.3c-1.2-1.9-3.4-3.4-6.7-4.3-18.5-4.9-35.6 14.7-47.5 25.3C456.6 336.8 348 421 317.3 434.5c-7 3.1-14.8 3.8-21 1 6.5 6.9 17.2 7.1 26.5 3 30.7-13.5 139.3-97.8 164.6-120.4 11.9-10.7 29-30.2 47.4-25.3z"/></g></g></g></svg>