<svg version="1.2" xmlns="http://www.w3.org/2000/svg" width="1000" height="1000"><style>.b{fill:#bc6348}.e{fill:#82d8ce}.f{fill:#c7f2ed}.g{fill:#fff}</style><path fill-rule="evenodd" d="M778.3 501.3c0 152-123.2 275.3-275.3 275.3-152 0-275.3-123.3-275.3-275.3S351 226 503 226c152.1 0 275.3 123.3 275.3 275.3zm-173.5 0c0-56.2-45.6-101.8-101.8-101.8-56.2 0-101.8 45.6-101.8 101.8 0 56.2 45.6 101.8 101.8 101.8 56.2 0 101.8-45.6 101.8-101.8z" style="fill:#e77243"/><path class="b" d="M675.8 287c52.7 50.1 85.6 121 85.6 199.5 0 152.1-123.2 275.3-275.3 275.3-65.4 0-125.5-22.8-172.7-60.9 49.4 46.9 116.1 75.7 189.6 75.7 152.1 0 275.3-123.3 275.3-275.3 0-86.6-40-163.9-102.5-214.3z"/><path d="M261.7 538.1c-.8-166.9 91.4-280 285.6-276.9 66.2 1.1 103.9 18.5 146.4 45.4-50-51.6-120.1-83.6-197.6-83.6-152 0-275.3 123.2-275.3 275.3 0 98 51.3 184 128.4 232.8-48.1-49.6-87.1-118.5-87.5-193z" style="fill:#f28a55"/><path class="b" d="M419.2 559.2c-10.3-16-17.5-37.7-17.5-58.2 0-56.2 44.5-101.2 100.7-101.2 34.7 0 67.8 19.7 86.2 46.2-1.4-19.8-16.4-35.5-32.6-46.7-24.1-16.8-48.2-20.2-76.2-15.3-43.1 7.5-100 55.2-92.2 119.8 2.8 23.6 12.8 42.3 31.6 55.4z"/><path fill-rule="evenodd" d="M742.9 581.4c-17.5 40.9-58.1 58.4-84.3 91.4-31.3 39.4-47 89.6-103.6 97.8-39.1 5.7-63.1-10.9-94-31.4-20.4-13.5-40.8-29.7-63.8-38.6-17.3-6.8-35.8-9.5-53.2-16.4-33.4-13.3-74.2-36.7-75.8-77-1.2-28.8 14.2-53.1 15.5-81.2 1.4-32.6-20.7-52.4-28.6-82.4-18.3-69.9 51.8-144.8 125.9-155.9 27.6-4.1 54.7 2.8 80-10.2 25.9-13.2 53.9-20.9 82.8-19.7 29.6 1.3 63.9 6.8 90.3 19.2 17 7.9 46.2 25.1 51.5 44.9 6.9 26-3 54.3 6.3 81.6 11.7 34.1 43.7 58.2 58.2 91.6 11.8 26.9 3.7 60.8-7.2 86.3zM576.8 415c-12.9-31.9-54.7-37.9-77.3-34.7-14.4 2.1-97 18.5-101.8 70-1.7 18.1-1.9 37.2-2 55.9-.2 20.5 2.3 42.5 8.9 62.3 8.4 25.2 35.1 34.2 58.9 37.3 26.9 3.5 48.5 15.6 74.7 8 63.2-18.5 68.1-60.4 86.2-84.2 40-52.4-29.3-69.4-47.6-114.6z" style="fill:#92f4ea"/><path class="e" d="M389.2 555.1c4 12 12.1 20.3 22 26.1-2.7-3.7-5-7.9-6.6-12.7-6.6-19.8-9.1-41.8-8.9-62.3.1-18.7.3-37.8 2-55.9 4.8-51.5 87.4-67.9 101.8-70 14.8-2.1 37.7-.2 55.4 10.2-17.1-22.1-51.2-26.3-70.8-23.5-14.4 2-97.1 18.5-101.9 69.9-1.6 18.1-1.9 37.3-2 56-.1 20.4 2.3 42.4 9 62.2z"/><path class="e" d="M750.1 495.1c-14.5-33.4-46.5-57.5-58.2-91.6-9.3-27.3.6-55.6-6.3-81.6-3-11.1-13.5-21.4-25.2-29.7 4.7 5.1 8.2 10.6 9.7 16.3 7 26-3 54.3 6.4 81.6 11.7 34.1 43.7 58.2 58.2 91.6 11.7 27 3.7 60.9-7.3 86.4-17.5 40.8-58 58.4-84.3 91.4-31.3 39.3-46.9 89.5-103.5 97.7-39.1 5.7-63.1-10.9-94-31.4-20.4-13.5-40.9-29.7-63.8-38.6-17.3-6.7-35.8-9.5-53.2-16.4-13.7-5.4-28.7-12.6-41.7-21.9 15.3 16.2 37.5 27.5 57.1 35.3 17.4 6.9 35.9 9.6 53.2 16.4 23 8.9 43.4 25.1 63.8 38.6 30.9 20.5 54.9 37.1 94 31.4 56.6-8.2 72.3-58.4 103.6-97.8 26.2-33 66.8-50.5 84.3-91.4 10.9-25.5 19-59.4 7.2-86.3z"/><path class="f" d="M471.4 285c-11.7-.6-26.3 8.3-38 11-13.9 3.3-28.7 3.2-42.7 5.8-26.8 5-62 16-77.7 40.1q-.8 1.2-1.5 2.4c-11.7 11-21.1 24.4-26.2 39.6-6.3 18.3-6.4 38.3 1.2 56.1 7.5 17.9 16.5 34 20.3 53.2 2 10 3.4 21.7 1.4 31.7-2.5 12.6-7 23.9-6.9 37 .1 26.1 22.6 27.3 32.3 4.8 8.6-19.9 6.7-46 5.7-67.4-1.3-25.9.2-50.2 3.9-75.9 8.5-59.3 64.7-68.1 112.2-82.4 16.5-5 32.6-12.6 35.7-30.7 2.3-13.3-5.3-24.6-19.7-25.3zM684.4 520.9c-2.8-14.4-2.5-30-7.2-43.8-4.7-13.9-16.6-26.9-32.2-26.8-12.3.1-13.7 14.1-10.3 23.2 3.5 9.2 8 17.7 8.6 27.6 1.1 19.5-4.9 36.1-14.6 52.9-5.8 9.9-14.9 18.5-22.6 26.8-7 7.6-10.9 17-17.1 25-12.2 16-27.1 18.5-45.5 20.2-15.1 1.3-29.1 7.8-44.2 7.7-71.7-.4-43.8 43.4 4.2 51.7 10 1.7 20.7 2.5 30.7 3.3 10.8.8 21.7 1.5 31.5-3.9 11.5-6.4 14.7-18.6 23.7-27.1 11.7-11.3 27-19 40.7-27.4 24.3-14.9 49.8-36.1 56.8-65.1 3.7-15.2.4-29.5-2.5-44.3z"/><path class="g" d="M365.4 320.7c-6.9-2-16.3 1.3-22.3 5-3.6 2.2-6.6 5.4-9.6 8.7-9.2 5.7-18.9 17.8-23.7 23.6-11.7 14.5-22.5 40.1-18.2 59.1 1.3 5.7 6.2 14.1 13.1 14.3 6.6.1 9.2-8 10.6-13.4 1.8-7.5 1.3-15.3 3.3-22.9 2.6-10.3 6.5-19.8 11.9-28.8 8.8-14.2 19.9-19.5 33.3-27.9 7.7-4.9 14.7-14 1.6-17.7zM626.4 581.1c-3.7-1.5-16.6 15.6-18.7 18.2-4.8 6.2-7.9 12.6-13.9 18-10.7 9.9-23.4 18.3-37.6 21.2-6.6-.2-13.1-.7-19.6 0-8.9.9-17.8 2.9-26.8 4.3-4.7.7-24.9 6.8-10.6 12.2 13 4.8 34-3.2 47.1-6 9.9-2.1 20.2-4.5 29.9-9.5 10-5.1 16.6-13.7 25-21 5.1-4.4 10.3-8.3 14.7-13.3 2.3-2.6 17.7-21.3 10.5-24.1zM656.5 487.2c-.4-2.8-.5-8.1-2.3-10.5-1-1.4-2.4-2.1-3.8-2-9.9-4.4-1.7 21-1.4 23.1 1.5 11.5.6 25.9-2.2 37-2.3 9.3-7.9 17.1-10.9 25.7-1.7 4.8-1.2 9.2 4.3 6 3.2-1.9 6-7 7.7-10.2 7.7-13.7 10.2-30.8 10.2-46.4 0-7.9-.5-15.2-1.6-22.7z"/><path class="f" d="M334.7 602.3c-9.2-5.9-19.6-10.6-30.5-11.8-7.3-.8-11.7 1.9-14.2 6.6-6.1 6.3-6.2 17.2-3.7 26 5.9 19.9 30.4 36.2 51.2 31.5 24.1-5.6 11.1-43.2-2.8-52.3z"/><path class="g" d="M319.5 611.2c-.2-4.3 1.6-8.4-1.5-11.8-2.7-2.9-7.5-3.1-10.8-1.6-.8.4-1.6 1.1-2.5 1.8-13.9 5.5-3.5 45.6 13.8 34.4 7.7-4.9 1.3-16.2 1-22.8z"/><path class="f" d="M582.1 265.2c-14.9-2.3-66.4-6.3-80.8 7.4-6 2-5 11.1-1.5 14.9 4.9 5.3 14 5.2 20.6 4.6 13.5-1.1 26.3-7.3 39.6-9.3 7.1-1.1 14.7-1.3 22.1-1 4.6.2 14.8 3.9 19 1.4 16-9.5-13.8-17.2-19-18z"/><path class="g" d="M552.3 268.9c-1.6-4.2-13.4-2.9-16.9-2.9-6.4 0-19.7.5-24.8 6.6-3.8 2.5-5.5 5.6-1.9 9 6.7 6.2 26.6-3.5 33.7-5.5 3.1-.9 11.6-2.5 9.9-7.2z"/></svg>