<svg version="1.2" xmlns="http://www.w3.org/2000/svg" width="1000" height="1000"><style>.b{fill:#bc6348}.e{fill:#c92d69}.f{fill:#f2619c}.g{fill:#fff}.h{fill:#f2e7ad}</style><path fill-rule="evenodd" d="M778.5 501.3c0 152-123.2 275.3-275.3 275.3-152 0-275.3-123.3-275.3-275.3S351.2 226 503.2 226c152.1 0 275.3 123.3 275.3 275.3zm-173.5 0c0-56.2-45.6-101.8-101.8-101.8-56.2 0-101.7 45.6-101.7 101.8 0 56.2 45.5 101.8 101.7 101.8S605 557.5 605 501.3z" style="fill:#e77243"/><path class="b" d="M676 287c52.7 50.1 85.6 121 85.6 199.5 0 152.1-123.2 275.3-275.2 275.3-65.5 0-125.5-22.8-172.8-60.9 49.4 46.9 116.1 75.7 189.6 75.7 152.1 0 275.3-123.3 275.3-275.3 0-86.6-40-163.9-102.5-214.3z"/><path d="M261.9 538.1c-.8-166.9 91.5-280 285.6-276.9 66.2 1.1 103.9 18.5 146.4 45.4-50-51.6-120-83.6-197.5-83.6-152.1 0-275.3 123.2-275.3 275.3 0 98 51.2 184 128.3 232.8-48.1-49.6-87.1-118.5-87.5-193z" style="fill:#f28a55"/><path class="b" d="M419.5 559.2c-10.4-16-17.6-37.7-17.6-58.2 0-56.2 44.5-101.2 100.7-101.2 34.8 0 67.8 19.7 86.2 46.2-1.4-19.8-16.3-35.5-32.5-46.7-24.2-16.8-48.3-20.2-76.3-15.3-43.1 7.5-100 55.2-92.2 119.8 2.9 23.6 12.8 42.3 31.7 55.4z"/><path fill-rule="evenodd" d="M717 621.8c-14.5 20.8-20.5 43.7-32.1 65.6-16.7 31.6-41.3 47.5-73.4 62-37.9 17.1-78.5 21.9-119.4 14.1-52.4-9.9-86.6-55.7-135.3-74.3-21.4-8.2-41.4-13.2-59.8-27.4-21.4-16.4-36.2-37.4-47.5-61.7-18.5-39.9-8.2-76.7-2.1-117.3 5.9-40.1-8.2-78.5 13.4-117.1 14.9-26.5 39-49.1 62.4-70.4 6.4-9.3 15.3-17 25.3-23.3q0-.1.1-.1c14.9-9.3 32.3-15.5 47.5-19.3 34.8-8.7 69.3-14.6 106.6-14.6 36.2 0 76.8 2.4 107.8 21.9 15.4 9.7 26.2 24.3 37.5 38.3 16 19.8 34.2 35.7 52.9 52.9 39.4 36.3 66.5 83.9 71.5 136.9 5.3 55.3-26.4 92.4-55.4 133.8zM578.6 420.5c-16.2-14.9-29.7-33.7-51.7-36.9-11-1.6-53.2 9.4-64.3 10.5-31.7 3.2-56.4 33.7-66.5 49.6-13.9 22.1 2.5 53.1-1 77.2-8.5 57.8 10.6 48 36.1 68.4 72.5 58 122.1 20 163.2-19 15.9-15 7.7-37.1 18.8-57 27.6-49.5-5.9-66.3-34.6-92.8z" style="fill:#ee3473"/><path class="e" d="M401 569.7c-7.3-7.2-10.3-19.1-5.9-48.8 3.5-24.1-12.9-55.1 1-77.2 10.1-15.9 34.8-46.4 66.5-49.6 11.1-1.1 53.3-12.1 64.3-10.5 5.1.7 9.7 2.3 14 4.5-7.7-6.5-16.2-11.4-26.6-12.9-11.1-1.6-53.3 9.4-64.4 10.5-31.6 3.2-56.4 33.6-66.4 49.6-13.9 22.1 2.4 53-1.1 77.2-6.3 43.4 2.9 48.7 18.6 57.2zM431.2 589.3c-4.4-3.6-8.7-6.2-12.6-8.4 6.6 5.3 13.1 9.8 19.4 13.6q-3.4-2.5-6.8-5.2zM344.2 680.8c-16.9-6.4-32.8-11-47.8-19.5q.3.3.6.5c18.4 14.2 38.4 19.2 59.8 27.4 11.2 4.3 21.6 10 31.6 16.3-14-9.7-28.3-18.6-44.2-24.7zM772.4 488c-5-53-32.1-100.6-71.5-136.9-18.7-17.2-36.9-33.1-52.9-52.9-11.3-14-22.1-28.6-37.5-38.3q-2.5-1.5-5-2.9c11.5 9.3 20.5 21.2 29.8 32.7 16.1 19.9 34.3 35.8 52.9 53 39.4 36.3 66.6 83.9 71.6 136.9 5.2 55.2-26.5 92.4-55.4 133.7-14.6 20.8-20.6 43.7-32.2 65.7-16.7 31.6-41.3 47.5-73.3 62-38 17.1-78.5 21.9-119.4 14.1-19-3.6-35.5-11.9-51.2-21.8 19.5 13.6 39.7 25.7 63.8 30.2 40.9 7.8 81.5 3 119.4-14.1 32.1-14.5 56.7-30.4 73.4-62 11.6-21.9 17.6-44.8 32.1-65.6 29-41.4 60.7-78.5 55.4-133.8z"/><path class="f" d="M389.3 277.1c-10.2-4.6-27.4 6.2-36.4 12.2-10 6.8-23.7 19.3-34.1 33-15.4 13.1-27.4 31.4-33.8 49.7-5.9 16.9-18.5 78.4 7.9 85.1 32.4 8.2 21.6-52.1 24-67.7 5.4-34.4 36.4-54.5 59.8-75.9 9.5-8.7 31.7-27.8 12.6-36.4zM639.4 503.3c-15.7 24.6-5.8 52.3-22.2 77.6-17 26.3-54.1 41.1-83.4 52.6-15.9-.4-35.1-2.6-46.4 3.9-20.8 11.9-9.7 36.3 9.6 40 20.1 4 41.2-3 58.5-11.5 22.9-11.4 52.2-26.2 70.8-44.2 24.5-23.7 31.7-58.9 36.9-89.9 3.7-22.4 0-65.8-23.8-28.5z"/><path class="e" d="M522.8 283.4c8.5-.4 16.2-.2 23.4 3.9 5.5 3.1 11.7 12 18.8 9.9 15.7-4.6-3.4-25.8-10.8-30.4-5.6-3.5-14.3-5.1-22.4-4.4-13.4-3.6-35.9 7-45.9 14.6-17.4 13.4-25.1 34.4-23 56 4.6 46.5 62.7 62 92.8 28.5 9.7-10.7 17.3-29.9 9-43-8.1-12.7-26.3-17.2-39.8-13-12.2 3.8-25.4 20-19.3 33.8 5.9 13.1 37.3 12.5 33.9-4.1-7.2-2.8-14.2 7.2-20.9 3-7-4.3-2.3-14.5 2.9-18.1 12.8-9 30.3.1 31.9 15 4.1 38.2-59.5 40.5-74.1 13.7-7.6-13.9-6.6-32.5 2.1-46.5 9.8-15.6 24.5-18 41.4-18.9zM659.3 391c-16 12.7-28.6 32-15.7 51.7 10.2 15.5 30.1 22.3 47.4 15.8 16.9-6.4 22.9-28.8 11.4-43-4.7-5.7-16-10.2-23-5.3-7.2 5-3.2 14.1 4.7 14.6 6.4 2 14.9 3.8 11.2 13.6-4 10.5-19.9 11.9-28.8 7.7-30-14.2 0-47.8 21.4-49.8 37.8-3.6 55.7 43.9 29.8 68.8-24.9 23.8-63 16.1-81.8-12.7-9.4-14.6-8.6-28.4-6.1-45.6.9-5.9 12.1-49.1-7.1-30.5-11.2 10.8-10.4 39.6-7.7 53.7 3.2 16.2 14.4 32.9 26.7 44 32.6 29.4 93.1 23.5 103.4-26.9 10-48.5-45.8-87.4-85.8-56.1zM390.2 376.9c-5.9-19.6-19.3-38.4-42.3-33.5-18.2 3.8-31.8 19.9-32 38.4-.3 18.1 18.4 31.7 35.8 26.2 7.1-2.2 15.4-11.2 13.4-19.4-2.1-8.5-12-8.2-15.3-1-4.2 5.2-9 12.5-16.8 5.4-8.3-7.4-3.8-22.8 3.3-29.5 24.3-22.8 44.6 17.5 38.7 38.1-10.5 36.5-61.3 35.8-75 2.6-13.1-31.8 8-64.6 41.6-71.5 17.1-3.5 29.6 2.4 44.7 11 5.2 2.9 41.3 29.1 31 4.4-5.9-14.3-33.1-24.1-47.2-26.7-16.3-2.9-35.9 1.3-50.7 8.8-39.3 19.7-55.8 78.1-12.7 106.1 41.6 27 98.1-10.8 83.5-59.4zM691 593.2c-33.3-15.8-88.3 24-50.8 55.7 11.7 10 43.5 8.4 43.5-12.7 0-7.5-8.2-13.9-15.1-8.7-6.4 4.8-1.1 16-14.5 14-24.2-3.5-6.5-29.4 6.4-33.8 16.7-5.6 41.3 5.8 43.2 25.4 3.5 36.1-51.5 43.4-74.7 30.3-16.2-9.2-23.4-23.6-20-40.9 2.8-14.4 9.1-30.2 25.1-34.8 10.9-3.1 24.5 1.3 33.5-7.7 7.3-7.3 3-17.1-4.6-17.9l.4-.1q-.2.1-.5.1c-1.4-.1-3.1.1-4.8.8-6.3.6-13 .2-19 2.4-9.1 3.3-18.3 8.3-25.3 15-15.8 15.1-23.4 42-19 63.3 9.1 43.7 69.7 49.6 102.6 32.7 16.7-8.6 24.1-26.5 24.2-44.3.2-18.1-14.8-31.3-30.6-38.8zM296.6 514.1c-35.3 20.4-50.4 71.5-13.8 97.6 14.8 10.5 37.1 26.5 54.9 13.2 13.3-10 23.2-34.4 17.1-50.9-5.9-16.2-30.9-19.8-45.6-11.6-9.5 5.3-10.5 13.7-3.2 26.4 3.4 6 15.7 9.9 19.8 2.9 5.7-9.9-12.3-2.1-11.3-12.5.8-9.3 15.5-6.7 20.1-2.1 15.9 16.2-1.8 35.2-20.1 33.8-15.5-1.1-30.1-16.5-35.6-30.6-5.6-14.2 2.2-29.9 13.1-40.4 13.9-13.1 50.8-22.4 61.3.6 3.7 8.2-4.1 29.1 14 25.1 6.7-1.5 8.3-8.1 7.1-14.6 9-34.9-50.4-52.7-77.8-36.9z"/><path class="g" d="M463.7 711.5c5.2-.1 10-2.1 14.2-5 2.1-1.5.1-4.9-2-3.4-3.6 2.5-7.7 4.3-12.2 4.4-2.5.1-2.5 4.1 0 4z"/><path class="h" d="M291.3 511.5C256 531.8 241 583 277.6 609.1c14.7 10.5 37 26.5 54.8 13.1 13.3-9.9 23.3-34.4 17.2-50.9-6-16.1-31-19.7-45.7-11.6-9.5 5.3-10.5 13.8-3.2 26.5 3.5 5.9 15.8 9.9 19.9 2.8 5.7-9.9-12.4-2.1-11.4-12.4.8-9.3 15.5-6.7 20.1-2.1 15.9 16.1-1.8 35.1-20.1 33.8-15.5-1.2-30.1-16.6-35.6-30.7-5.6-14.2 2.2-29.9 13.2-40.3 13.8-13.2 50.7-22.5 61.2.5 3.8 8.2-4 29.1 14 25.1 6.7-1.5 8.4-8 7.2-14.5 9-34.9-50.4-52.8-77.9-36.9z"/><path class="g" d="M273.2 538.6c4.7-11.9 18.9-19.8 31.3-21.2 2.5-.3 2.5-4.2 0-3.9-14.3 1.6-29.7 10.3-35.2 24.1-.9 2.4 2.9 3.4 3.9 1zM341.4 522.2c11.2.1 16.3 17.4 15.9 26.5-.1 2.5 3.9 2.5 4 0 .4-11.5-6.2-30.3-19.9-30.5-2.6 0-2.6 3.9 0 4zM305.4 576.6c-1.2-16.4 24.9-9.8 24.6-7.9-.4 2.5 3.4 3.6 3.8 1.1 1.1-6.9-11-8.2-15.4-8.3-9.5-.3-17.7 4.9-17 15.1.2 2.5 4.2 2.6 4 0zM290.8 611c15.9 11.1 37.7 5.3 49.3-9.2 1.6-2-1.2-4.8-2.8-2.8-10.6 13.2-29.9 18.7-44.5 8.6-2.1-1.4-4.1 2-2 3.4z"/><path class="e" d="M491.7 667c-16.5-4.1-38.8-1.1-46.2 16.7-6.4 15.3-1.1 33.9 15.8 38.8 7.6 2.2 19.8 1.8 23.3-7.2 6.1-15.8-8.2-7.2-14.2-4.5-21 9.4-19.4-22.4-3-28.4 20-7.3 30.6 8.8 30.6 26.6 0 15.6-15.5 26.6-30.6 27.4-32.9 1.8-65-35.6-45.1-66.2 7.9-12 29.9-18.8 43-20 12.2-1.2 38.1 15.3 46.2 3.7 9.2-13.1-9.2-22.1-21.3-22.5-13.9-5.4-35.7-2.7-46.8.9-22 7.2-41.9 21.9-44.6 46.1-5.3 48.7 51 86.9 95 67.2 32.2-14.4 35.3-69.2-2.1-78.6z"/><path class="h" d="M487.5 660.2c-16.5-4.1-38.8-1.2-46.2 16.6-6.4 15.4-1.1 33.9 15.8 38.8 7.6 2.2 19.8 1.9 23.3-7.1 6.1-15.9-8.2-7.2-14.3-4.5-20.9 9.3-19.4-22.5-2.9-28.5 20-7.3 30.6 8.8 30.6 26.6 0 15.7-15.5 26.6-30.6 27.5-32.9 1.8-65-35.6-45.1-66.3 7.9-12 29.8-18.7 43-20 12.2-1.2 38.1 15.3 46.2 3.8 9.2-13.2-9.2-22.1-21.4-22.6-13.8-5.3-35.7-2.7-46.7.9-22 7.2-41.9 21.9-44.6 46.1-5.4 48.7 50.9 87 95 67.3 32.2-14.4 35.3-69.3-2.1-78.6z"/><path class="g" d="M427.8 642.1c12.4-6.4 24.9-10.2 38.9-10.4 3.1-.1 25.7 1.6 25.6 6.1 0 2.5 4 2.5 4 0 0-7.7-17.5-9-22.7-9.7-16.5-2.3-33.3 3.1-47.8 10.6-2.2 1.2-.2 4.6 2 3.4zM447.3 692.6c.2-14.5 8.1-23.6 23.1-24.1 10.4-.4 28.8 3.2 27.7 16.8-.1 2.5 3.8 2.5 4 0 1.2-15.9-17.9-20.4-30.3-20.8-17.7-.5-28.2 11.1-28.5 28.1 0 2.6 3.9 2.6 4 0z"/><path class="h" d="M683.6 592.7c-33.3-15.8-88.3 23.9-50.8 55.7 11.7 9.9 43.5 8.4 43.5-12.7 0-7.6-8.2-14-15.1-8.7-6.4 4.8-1 16-14.5 14-24.2-3.5-6.5-29.4 6.4-33.8 16.7-5.6 41.3 5.8 43.2 25.3 3.5 36.2-51.5 43.5-74.6 30.4-16.3-9.2-23.5-23.6-20.1-40.9 2.9-14.4 9.1-30.2 25.1-34.8 11-3.1 24.5 1.3 33.5-7.7 7.3-7.3 3-17.2-4.6-17.9l.4-.1q-.2.1-.4.1c-1.5-.1-3.2.1-4.8.8-6.3.6-13.1.2-19.1 2.4-9.1 3.3-18.3 8.3-25.3 14.9-15.8 15.2-23.4 42.1-19 63.4 9.1 43.6 69.7 49.6 102.6 32.7 16.7-8.6 24.1-26.6 24.2-44.3.2-18.2-14.8-31.3-30.6-38.8z"/><path class="g" d="M605.2 593.4c6.2-8.3 16.8-15 27.1-16.8 3.5-.7 7-1.2 10.5-1.1 7.1.3 9.9-1.8 8-3.4-3.5-3.1-15-.4-19.5.6-11.2 2.5-22.9 9.8-29.5 18.7-1.5 2.1 1.9 4.1 3.4 2zM632.6 635.2c-9.1-16.4 9.4-29.1 23.1-33.6 9.5-3 20.7-4.2 29.9.3 1.8.9 10.7 8 12.2 11.7.9 2.4 4.4 5.8 5.7 3.6 3.2-5.2-7.9-13.1-11.3-15.6-10.3-7.5-21.2-7.2-33.2-4.8-17.8 3.6-40.9 20.3-29.8 40.4 1.2 2.2 4.7.2 3.4-2z"/><path class="g" d="M663 630.9c2.3 4.3-1.6 11.8-6.8 11.2-2.5-.2-2.5 3.7 0 4 8.4 1 13.8-10.5 10.2-17.2-1.2-2.3-4.6-.3-3.4 2z"/><path class="h" d="M654.1 382.6c-16.1 12.6-28.7 32-15.8 51.6 10.2 15.6 30.2 22.4 47.5 15.8 16.9-6.3 22.8-28.7 11.3-42.9-4.7-5.8-16-10.2-23-5.4-7.1 5.1-3.2 14.2 4.7 14.6 6.4 2.1 14.9 3.8 11.2 13.7-3.9 10.4-19.9 11.9-28.8 7.7-30-14.3.1-47.9 21.4-49.9 37.8-3.5 55.7 44 29.8 68.8-24.8 23.9-63 16.2-81.7-12.6-9.5-14.6-8.6-28.5-6.1-45.6.8-6 12-49.1-7.2-30.6-11.1 10.8-10.4 39.7-7.6 53.7 3.1 16.3 14.3 33 26.6 44.1 32.7 29.4 93.1 23.5 103.4-26.9 10-48.6-45.8-87.5-85.7-56.1z"/><path class="g" d="M621 371.4c-7.1 13.1-11.2 28.6-8.1 43.4.6 2.5 4.4 1.5 3.8-1-2.9-13.7 1.2-28.3 7.7-40.4 1.3-2.2-2.2-4.2-3.4-2zM677.3 407.7c7.5 0 22.5 12.4 14.4 19.9-1.8 1.7 1 4.5 2.8 2.8 11-10.1-6.4-26.7-17.2-26.6-2.5 0-2.5 3.9 0 3.9zM666.7 390.6c16.9-10.6 50.1-8.3 56.2 14.1.6 2.5 4.5 1.4 3.8-1.1-6.8-24.9-42.9-28.4-62-16.4-2.1 1.3-.1 4.7 2 3.4z"/><path class="h" d="M519.1 275c8.5-.5 16.2-.2 23.4 3.9 5.5 3.1 11.7 11.9 18.9 9.8 15.6-4.6-3.5-25.8-10.9-30.3-5.6-3.6-14.2-5.1-22.3-4.4-13.5-3.7-36 7-46 14.6-17.4 13.3-25.1 34.4-23 55.9 4.6 46.6 62.7 62 92.8 28.5 9.7-10.7 17.4-29.9 9-42.9-8.1-12.8-26.2-17.2-39.8-13-12.2 3.7-25.4 19.9-19.3 33.8 5.9 13 37.3 12.5 33.9-4.1-7.2-2.9-14.2 7.2-20.9 3-7-4.4-2.3-14.5 2.9-18.2 12.8-8.9 30.3.1 31.9 15 4.1 38.2-59.5 40.6-74.1 13.8-7.5-14-6.6-32.6 2.1-46.5 9.8-15.6 24.5-18 41.4-18.9z"/><path class="g" d="M509.7 327.1c-3.2-7.3.5-14.2 6.1-19 1.9-1.6-.9-4.4-2.8-2.8-7.2 6.1-10.6 14.9-6.7 23.8 1.1 2.3 4.5.3 3.4-2zM491.6 272.5c16.6-12.7 44-13.2 57.8 3.9 1.6 1.9 4.3-.9 2.8-2.8-14.9-18.3-44.7-18.2-62.6-4.6-2 1.6 0 5 2 3.5z"/><path class="h" d="M388.6 369.5c-5.8-19.6-19.3-38.3-42.3-33.5-18.2 3.8-31.8 19.9-32 38.4-.2 18.1 18.4 31.8 35.8 26.2 7.1-2.2 15.4-11.1 13.4-19.4-2.1-8.5-12-8.1-15.3-.9-4.2 5.1-9 12.4-16.8 5.3-8.3-7.4-3.8-22.8 3.4-29.5 24.2-22.8 44.5 17.5 38.6 38.1-10.5 36.5-61.3 35.8-75 2.6-13.1-31.8 8-64.6 41.7-71.5 17-3.5 29.5 2.4 44.6 11 5.2 3 41.3 29.1 31.1 4.5-6-14.4-33.2-24.2-47.3-26.8-16.3-2.9-35.9 1.4-50.7 8.8-39.2 19.7-55.8 78.1-12.7 106.1 41.6 27 98.2-10.7 83.5-59.4z"/><path class="g" d="M285.8 363.2c-5.9 31.1 15.6 76.2 52.7 68.5 2.5-.6 1.4-4.4-1.1-3.9-33.9 7.2-53.1-35.6-47.8-63.6.5-2.5-3.3-3.5-3.8-1zM331.5 393.7c8.2 2.5 25.8 6.1 28.9-5.4.7-2.4-3.1-3.5-3.8-1-2.3 8.4-18.3 4.3-24.1 2.6-2.4-.8-3.4 3-1 3.8zM328.6 357.6c4.3-8.3 11.7-12.1 20.8-12.7 3-.2 18.4 3.2 16.7 8.4-.8 2.4 3 3.4 3.8 1 2.3-7-10.5-12.2-15.6-13.1-11.7-2.1-23.7 4-29.1 14.4-1.2 2.2 2.2 4.2 3.4 2zM388.5 329.2q4.4 1.4 8.6 3.5c2.6 1.3 6.8 3.2 7.8 6.2.8 2.4 4.6 1.4 3.8-1-2.3-7.1-12.9-10.5-19.2-12.5-2.4-.8-3.5 3-1 3.8z"/></svg>